G04 #@! TF.FileFunction,Copper,L2,Bot,Signal*
%FSLAX46Y46*%
G04 Gerber Fmt 4.6, Leading zero omitted, Abs format (unit mm)*
G04 Created by KiCad (PCBNEW 4.0.7-e2-6376~58~ubuntu14.04.1) date Tue Dec 19 21:47:33 2017*
%MOMM*%
%LPD*%
G01*
G04 APERTURE LIST*
%ADD10C,0.100000*%
%ADD11O,4.000000X8.000000*%
%ADD12C,3.000000*%
%ADD13R,1.800000X1.300000*%
%ADD14O,1.800000X1.300000*%
%ADD15R,1.600000X1.600000*%
%ADD16C,1.600000*%
%ADD17R,2.000000X2.000000*%
%ADD18C,2.000000*%
%ADD19R,3.000000X3.000000*%
%ADD20O,3.000000X3.000000*%
%ADD21C,1.998980*%
%ADD22C,2.500000*%
%ADD23O,1.600000X1.600000*%
%ADD24R,2.400000X1.600000*%
%ADD25O,2.400000X1.600000*%
%ADD26R,1.800000X1.800000*%
%ADD27O,1.800000X1.800000*%
%ADD28O,2.500000X4.000000*%
%ADD29C,1.800000*%
%ADD30O,2.600000X1.800000*%
%ADD31C,2.997200*%
%ADD32C,1.000000*%
%ADD33C,1.000000*%
%ADD34C,3.000000*%
%ADD35C,0.254000*%
G04 APERTURE END LIST*
D10*
D11*
X18750000Y92000000D03*
D12*
X5750000Y92000000D03*
X5750000Y145500000D03*
X31750000Y145500000D03*
X31750000Y92000000D03*
D11*
X18750000Y145500000D03*
D13*
X38500000Y91750000D03*
D14*
X38500000Y89750000D03*
X38500000Y87750000D03*
X38500000Y85750000D03*
X38500000Y83750000D03*
X38500000Y81750000D03*
D15*
X5750000Y40500000D03*
D16*
X3250000Y40500000D03*
D17*
X3750000Y49500000D03*
D18*
X8750000Y49500000D03*
D19*
X56750000Y146500000D03*
D12*
X51670000Y146500000D03*
D19*
X51750000Y128500000D03*
D20*
X51750000Y132500000D03*
X51750000Y136500000D03*
D19*
X63750000Y146500000D03*
D12*
X68830000Y146500000D03*
D21*
X93560000Y137000000D03*
X85940000Y137000000D03*
X87940000Y30000000D03*
X95560000Y30000000D03*
X86440000Y130000000D03*
X94060000Y130000000D03*
X57940000Y130000000D03*
X65560000Y130000000D03*
X11750000Y36190000D03*
X11750000Y43810000D03*
X37250000Y108810000D03*
X37250000Y101190000D03*
X87940000Y78500000D03*
X95560000Y78500000D03*
X87940000Y53500000D03*
X95560000Y53500000D03*
X87500000Y90940000D03*
X87500000Y98560000D03*
X2250000Y35060000D03*
X2250000Y27440000D03*
X43500000Y84440000D03*
X43500000Y92060000D03*
X16440000Y28500000D03*
X24060000Y28500000D03*
D22*
X87750000Y20500000D03*
X87750000Y15500000D03*
X87750000Y10500000D03*
D21*
X23560000Y36500000D03*
X15940000Y36500000D03*
D18*
X94250000Y104000000D03*
X89750000Y104000000D03*
X94250000Y110500000D03*
X89750000Y110500000D03*
X94250000Y57000000D03*
X89750000Y57000000D03*
X94250000Y63500000D03*
X89750000Y63500000D03*
X94250000Y82000000D03*
X89750000Y82000000D03*
X94250000Y88500000D03*
X89750000Y88500000D03*
X89750000Y40000000D03*
X94250000Y40000000D03*
X89750000Y33500000D03*
X94250000Y33500000D03*
D15*
X4250000Y79000000D03*
D23*
X4250000Y86620000D03*
D15*
X4250000Y76000000D03*
D23*
X4250000Y68380000D03*
D15*
X8250000Y86500000D03*
D23*
X8250000Y78880000D03*
D15*
X8250000Y68500000D03*
D23*
X8250000Y76120000D03*
D24*
X15750000Y54500000D03*
D25*
X23370000Y49420000D03*
X15750000Y51960000D03*
X23370000Y51960000D03*
X15750000Y49420000D03*
X23370000Y54500000D03*
D24*
X93250000Y140500000D03*
D25*
X85630000Y145580000D03*
X93250000Y143040000D03*
X85630000Y143040000D03*
X93250000Y145580000D03*
X85630000Y140500000D03*
D26*
X4250000Y58500000D03*
D27*
X6790000Y58500000D03*
X9330000Y58500000D03*
D28*
X44250000Y118000000D03*
X44250000Y96000000D03*
X77250000Y124000000D03*
X77250000Y146000000D03*
D26*
X7500000Y22750000D03*
D29*
X4960000Y22750000D03*
D26*
X92250000Y122000000D03*
D29*
X92250000Y124540000D03*
D30*
X52358000Y40378000D03*
X52358000Y42918000D03*
X52358000Y45458000D03*
X52358000Y47998000D03*
X52358000Y50538000D03*
X52358000Y53078000D03*
X52358000Y55618000D03*
X52358000Y58158000D03*
X52358000Y60698000D03*
X52358000Y63238000D03*
X52358000Y65778000D03*
X52358000Y68318000D03*
X52358000Y70858000D03*
X52358000Y73398000D03*
X52358000Y75938000D03*
X52358000Y78478000D03*
D12*
X52358000Y34878900D03*
X83358700Y34878900D03*
X83358700Y109877480D03*
X52358000Y109877480D03*
D24*
X34250000Y73500000D03*
D25*
X41870000Y40480000D03*
X34250000Y70960000D03*
X41870000Y43020000D03*
X34250000Y68420000D03*
X41870000Y45560000D03*
X34250000Y65880000D03*
X41870000Y48100000D03*
X34250000Y63340000D03*
X41870000Y50640000D03*
X34250000Y60800000D03*
X41870000Y53180000D03*
X34250000Y58260000D03*
X41870000Y55720000D03*
X34250000Y55720000D03*
X41870000Y58260000D03*
X34250000Y53180000D03*
X41870000Y60800000D03*
X34250000Y50640000D03*
X41870000Y63340000D03*
X34250000Y48100000D03*
X41870000Y65880000D03*
X34250000Y45560000D03*
X41870000Y68420000D03*
X34250000Y43020000D03*
X41870000Y70960000D03*
X34250000Y40480000D03*
X41870000Y73500000D03*
D31*
X37051000Y145750000D03*
X41750000Y145750000D03*
X46449000Y145750000D03*
D21*
X48250000Y47810000D03*
X48250000Y40190000D03*
D13*
X10750000Y29000000D03*
D14*
X10750000Y31000000D03*
D26*
X14250000Y77750000D03*
D29*
X14250000Y81250000D03*
D16*
X46750000Y76750000D03*
X46750000Y84250000D03*
X23750000Y32000000D03*
X16250000Y32000000D03*
X16250000Y44750000D03*
X16250000Y39750000D03*
X23750000Y45750000D03*
X23750000Y40750000D03*
X89750000Y43500000D03*
X94750000Y43500000D03*
X90250000Y92000000D03*
X95250000Y92000000D03*
X89750000Y67000000D03*
X94750000Y67000000D03*
X89750000Y114000000D03*
X94750000Y114000000D03*
D13*
X58250000Y11000000D03*
D14*
X58250000Y13000000D03*
X58250000Y15000000D03*
X58250000Y17000000D03*
X58250000Y19000000D03*
D32*
X54822000Y78478000D03*
X55000000Y92250000D03*
X25250000Y77000000D03*
X32250000Y77000000D03*
X91900000Y26050000D03*
X91950000Y84800000D03*
X91900000Y36900000D03*
X92300000Y60350000D03*
X20500000Y47500000D03*
X29500000Y55750000D03*
X39750000Y58250000D03*
X36500000Y55750000D03*
X89750000Y46750000D03*
X65000000Y56750000D03*
X41250000Y76500000D03*
X34250000Y75500000D03*
X37000000Y48000000D03*
X89750000Y75250000D03*
X37000000Y45500000D03*
X89750000Y70750000D03*
X32500000Y81000000D03*
X9330000Y62250000D03*
X56000000Y17000000D03*
X49250000Y43000000D03*
X11750000Y34000000D03*
X84810000Y90940000D03*
X84500000Y78500000D03*
X84500000Y53500000D03*
X85000000Y10500000D03*
X85000000Y30000000D03*
X49000000Y76000000D03*
X31500000Y58250000D03*
X44250000Y53250000D03*
X19750000Y34500000D03*
X31750000Y62500000D03*
X10250000Y68500000D03*
X37250000Y112500000D03*
D12*
X60250000Y136000000D03*
X70750000Y117750000D03*
D33*
X54500000Y78478000D02*
X54822000Y78478000D01*
X52358000Y78478000D02*
X54500000Y78478000D01*
X38500000Y81750000D02*
X37000000Y81750000D01*
X37000000Y81750000D02*
X32250000Y77000000D01*
X91900000Y24650000D02*
X87750000Y20500000D01*
X91900000Y26050000D02*
X91900000Y24650000D01*
X92950000Y85800000D02*
X94250000Y85800000D01*
X91950000Y84800000D02*
X92950000Y85800000D01*
X94250000Y60500000D02*
X92450000Y60500000D01*
X92350000Y36450000D02*
X94250000Y36450000D01*
X91900000Y36900000D02*
X92350000Y36450000D01*
X92450000Y60500000D02*
X92300000Y60350000D01*
X34250000Y55720000D02*
X34220000Y55750000D01*
X34220000Y55750000D02*
X29500000Y55750000D01*
X20500000Y47500000D02*
X20500000Y45750000D01*
X34250000Y55720000D02*
X36470000Y55720000D01*
X39760000Y58260000D02*
X41870000Y58260000D01*
X39750000Y58250000D02*
X39760000Y58260000D01*
X36470000Y55720000D02*
X36500000Y55750000D01*
X7500000Y22750000D02*
X7500000Y29250000D01*
X9250000Y31000000D02*
X10750000Y31000000D01*
X7500000Y29250000D02*
X9250000Y31000000D01*
X16250000Y44750000D02*
X19500000Y44750000D01*
X20500000Y45750000D02*
X23750000Y45750000D01*
X19500000Y44750000D02*
X20500000Y45750000D01*
X16250000Y32000000D02*
X14250000Y32000000D01*
X13250000Y31000000D02*
X10750000Y31000000D01*
X14250000Y32000000D02*
X13250000Y31000000D01*
X3250000Y40500000D02*
X3250000Y38500000D01*
X3250000Y38500000D02*
X10750000Y31000000D01*
X8750000Y49500000D02*
X7750000Y49500000D01*
X7750000Y49500000D02*
X3250000Y45000000D01*
X3250000Y45000000D02*
X3250000Y40500000D01*
X34030000Y55500000D02*
X34250000Y55720000D01*
X23370000Y48250000D02*
X23370000Y46130000D01*
X23370000Y46130000D02*
X23750000Y45750000D01*
X23370000Y48130000D02*
X23370000Y48250000D01*
X23370000Y48250000D02*
X23370000Y49420000D01*
X8750000Y49500000D02*
X8750000Y52000000D01*
X6790000Y53960000D02*
X6790000Y58500000D01*
X8750000Y52000000D02*
X6790000Y53960000D01*
X8250000Y78880000D02*
X8250000Y76120000D01*
X95250000Y92000000D02*
X94250000Y91000000D01*
X94250000Y91000000D02*
X94250000Y85800000D01*
X94250000Y85800000D02*
X94250000Y82000000D01*
X94250000Y57000000D02*
X94250000Y60500000D01*
X94250000Y60500000D02*
X94250000Y63500000D01*
X94250000Y63500000D02*
X94250000Y66500000D01*
X94250000Y66500000D02*
X94750000Y67000000D01*
X94250000Y33500000D02*
X94250000Y36450000D01*
X94250000Y36450000D02*
X94250000Y40000000D01*
X94750000Y43500000D02*
X94250000Y43000000D01*
X94250000Y43000000D02*
X94250000Y40000000D01*
X94250000Y110500000D02*
X94250000Y104000000D01*
X94250000Y110500000D02*
X94250000Y113500000D01*
X94250000Y113500000D02*
X94750000Y114000000D01*
X15940000Y36500000D02*
X15940000Y39440000D01*
X15940000Y39440000D02*
X16250000Y39750000D01*
X16250000Y39750000D02*
X19500000Y39750000D01*
X25750000Y49737256D02*
X29192744Y53180000D01*
X29192744Y53180000D02*
X34250000Y53180000D01*
X25750000Y44750000D02*
X24500000Y43500000D01*
X25750000Y49737256D02*
X25750000Y44750000D01*
X23250000Y43500000D02*
X24500000Y43500000D01*
X19500000Y39750000D02*
X23250000Y43500000D01*
X16190000Y39690000D02*
X16250000Y39750000D01*
X23560000Y36500000D02*
X23560000Y40560000D01*
X23560000Y40560000D02*
X23750000Y40750000D01*
X24012744Y40750000D02*
X27750000Y44487256D01*
X29390000Y50640000D02*
X34250000Y50640000D01*
X27750000Y49000000D02*
X29390000Y50640000D01*
X27750000Y44487256D02*
X27750000Y49000000D01*
X23750000Y40750000D02*
X24012744Y40750000D01*
X23500000Y36560000D02*
X23560000Y36500000D01*
X34250000Y50640000D02*
X33240002Y50640000D01*
X51500000Y81000000D02*
X57000000Y81000000D01*
X47250000Y76750000D02*
X51500000Y81000000D01*
X57000000Y81000000D02*
X57250000Y80750000D01*
X46750000Y76750000D02*
X47250000Y76750000D01*
X89750000Y43500000D02*
X89750000Y46750000D01*
X60000000Y78000000D02*
X57250000Y80750000D01*
X60000000Y61750000D02*
X60000000Y78000000D01*
X65000000Y56750000D02*
X60000000Y61750000D01*
X46750000Y76750000D02*
X46750000Y76750000D01*
X41500000Y76750000D02*
X46750000Y76750000D01*
X34250000Y73500000D02*
X34250000Y75500000D01*
X89750000Y40000000D02*
X89750000Y43500000D01*
X89750000Y40000000D02*
X89750000Y33500000D01*
X95560000Y30000000D02*
X92750000Y30000000D01*
X92750000Y30000000D02*
X89750000Y33000000D01*
X89750000Y33000000D02*
X89750000Y33500000D01*
X89750000Y33000000D02*
X89750000Y33500000D01*
X41250000Y76500000D02*
X41500000Y76750000D01*
X34250000Y48100000D02*
X34350000Y48000000D01*
X34350000Y48000000D02*
X37000000Y48000000D01*
X89750000Y75250000D02*
X93000000Y78500000D01*
X93000000Y78500000D02*
X94250000Y78500000D01*
X95560000Y78500000D02*
X94250000Y78500000D01*
X94250000Y78500000D02*
X93250000Y78500000D01*
X93250000Y78500000D02*
X89750000Y82000000D01*
X89750000Y88500000D02*
X89750000Y82000000D01*
X89750000Y88500000D02*
X89750000Y91500000D01*
X89750000Y91500000D02*
X90250000Y92000000D01*
X36940000Y45560000D02*
X37000000Y45500000D01*
X36940000Y45560000D02*
X34250000Y45560000D01*
X89750000Y67000000D02*
X89750000Y70750000D01*
X34250000Y45560000D02*
X34940000Y45560000D01*
X89750000Y63500000D02*
X89750000Y67000000D01*
X89750000Y57000000D02*
X89750000Y63500000D01*
X89250000Y57000000D02*
X92750000Y53500000D01*
X92750000Y53500000D02*
X95560000Y53500000D01*
X54649998Y82600002D02*
X70609996Y98560000D01*
X47737256Y79500000D02*
X50837258Y82600002D01*
X50837258Y82600002D02*
X54649998Y82600002D01*
X39500000Y62750000D02*
X39500000Y77250000D01*
X39500000Y77250000D02*
X41750000Y79500000D01*
X39250000Y45250000D02*
X39250000Y56000000D01*
X37020000Y43020000D02*
X39250000Y45250000D01*
X34250000Y43020000D02*
X37020000Y43020000D01*
X37500000Y60750000D02*
X39250000Y62500000D01*
X37500000Y57750000D02*
X37500000Y60750000D01*
X39250000Y56000000D02*
X37500000Y57750000D01*
X39250000Y62500000D02*
X39500000Y62750000D01*
X41750000Y79500000D02*
X47737256Y79500000D01*
X70609996Y98560000D02*
X87500000Y98560000D01*
X87500000Y98560000D02*
X87500000Y99810000D01*
X89750000Y102060000D02*
X89750000Y104000000D01*
X87500000Y99810000D02*
X89750000Y102060000D01*
X34250000Y43020000D02*
X35270000Y43020000D01*
X89750000Y110500000D02*
X89750000Y104000000D01*
X89750000Y114000000D02*
X89750000Y110500000D01*
X14250000Y77750000D02*
X14250000Y69250000D01*
X5500000Y65250000D02*
X4250000Y64000000D01*
X10250000Y65250000D02*
X5500000Y65250000D01*
X14250000Y69250000D02*
X10250000Y65250000D01*
X2250000Y35060000D02*
X2250000Y36750000D01*
X1250000Y47000000D02*
X3750000Y49500000D01*
X1250000Y37750000D02*
X1250000Y47000000D01*
X2250000Y36750000D02*
X1250000Y37750000D01*
X3750000Y49500000D02*
X3750000Y55000000D01*
X4250000Y55500000D02*
X4250000Y58500000D01*
X3750000Y55000000D02*
X4250000Y55500000D01*
X4250000Y58500000D02*
X4250000Y64000000D01*
X4250000Y72500000D02*
X4250000Y76000000D01*
X1750000Y70000000D02*
X4250000Y72500000D01*
X1750000Y66500000D02*
X1750000Y70000000D01*
X4250000Y64000000D02*
X1750000Y66500000D01*
X4250000Y79000000D02*
X4250000Y76000000D01*
X38500000Y85750000D02*
X37250000Y85750000D01*
X37250000Y85750000D02*
X32500000Y81000000D01*
X92000000Y117750000D02*
X88250000Y121500000D01*
X87500000Y94000000D02*
X92000000Y98500000D01*
X92000000Y98500000D02*
X92000000Y117750000D01*
X87500000Y90940000D02*
X87500000Y94000000D01*
X88250000Y127190000D02*
X86440000Y130000000D01*
X88250000Y121500000D02*
X88250000Y127190000D01*
X58250000Y17000000D02*
X56000000Y17000000D01*
X11750000Y36190000D02*
X11750000Y34000000D01*
X48250000Y40190000D02*
X48250000Y42000000D01*
X49332000Y42918000D02*
X49250000Y43000000D01*
X49332000Y42918000D02*
X52358000Y42918000D01*
X48250000Y42000000D02*
X49250000Y43000000D01*
X87500000Y90940000D02*
X84810000Y90940000D01*
X87940000Y78500000D02*
X84500000Y78500000D01*
X87940000Y53500000D02*
X84500000Y53500000D01*
X87750000Y10500000D02*
X85000000Y10500000D01*
X87940000Y30000000D02*
X85000000Y30000000D01*
X52358000Y75938000D02*
X49062000Y75938000D01*
X49062000Y75938000D02*
X49000000Y76000000D01*
X9330000Y58500000D02*
X9330000Y62250000D01*
X9330000Y62250000D02*
X9330000Y61920000D01*
X34250000Y58260000D02*
X31510000Y58260000D01*
X31510000Y58260000D02*
X31500000Y58250000D01*
X41870000Y53180000D02*
X44180000Y53180000D01*
X44180000Y53180000D02*
X44250000Y53250000D01*
X11750000Y36190000D02*
X8810000Y36190000D01*
X5750000Y39250000D02*
X5750000Y40500000D01*
X8810000Y36190000D02*
X5750000Y39250000D01*
X87500000Y90940000D02*
X87500000Y78940000D01*
X87500000Y78940000D02*
X87940000Y78500000D01*
X9330000Y58500000D02*
X9330000Y54920000D01*
X9330000Y54920000D02*
X11250000Y53000000D01*
X11250000Y53000000D02*
X11250000Y48000000D01*
X11250000Y48000000D02*
X10250000Y47000000D01*
X10250000Y47000000D02*
X7750000Y47000000D01*
X7750000Y47000000D02*
X5750000Y45000000D01*
X5750000Y45000000D02*
X5750000Y40500000D01*
X87250000Y52000000D02*
X87250000Y77810000D01*
X87250000Y77810000D02*
X87940000Y78500000D01*
X87940000Y30000000D02*
X87250000Y30690000D01*
X87250000Y30690000D02*
X87250000Y52000000D01*
X87250000Y52000000D02*
X87250000Y52810000D01*
X87250000Y52810000D02*
X87940000Y53500000D01*
X34250000Y63340000D02*
X32590000Y63340000D01*
X32590000Y63340000D02*
X31750000Y62500000D01*
X24060000Y28500000D02*
X24060000Y31690000D01*
X24060000Y31690000D02*
X21250000Y34500000D01*
X21250000Y34500000D02*
X19750000Y34500000D01*
X19750000Y34500000D02*
X19750000Y32810000D01*
X19750000Y32810000D02*
X24060000Y28500000D01*
X24060000Y31690000D02*
X23750000Y32000000D01*
X46750000Y84250000D02*
X46750000Y85250000D01*
X40250000Y91750000D02*
X38500000Y91750000D01*
X46750000Y85250000D02*
X40250000Y91750000D01*
X94060000Y130000000D02*
X94060000Y126350000D01*
X94060000Y126350000D02*
X92250000Y124540000D01*
X2250000Y27440000D02*
X2250000Y25460000D01*
X2250000Y25460000D02*
X4960000Y22750000D01*
X8250000Y68500000D02*
X10250000Y68500000D01*
X37250000Y108810000D02*
X37250000Y112500000D01*
X42750000Y118000000D02*
X44250000Y118000000D01*
X37250000Y112500000D02*
X42750000Y118000000D01*
X37440000Y109000000D02*
X37250000Y108810000D01*
X4250000Y68380000D02*
X8130000Y68380000D01*
X8130000Y68380000D02*
X8250000Y68500000D01*
X20149998Y73500000D02*
X20149998Y83600002D01*
X17250000Y86500000D02*
X8250000Y86500000D01*
X20149998Y83600002D02*
X17250000Y86500000D01*
X19000000Y66250000D02*
X20149998Y67399998D01*
X14040000Y51960000D02*
X13000000Y53000000D01*
X13000000Y53000000D02*
X13000000Y60250000D01*
X13000000Y60250000D02*
X19000000Y66250000D01*
X15750000Y51960000D02*
X14040000Y51960000D01*
X20149998Y67399998D02*
X20149998Y73500000D01*
X20149998Y73500000D02*
X20149998Y73500000D01*
X2250000Y125250000D02*
X2250000Y147750000D01*
X25250000Y139000000D02*
X31750000Y145500000D01*
X16500000Y139000000D02*
X25250000Y139000000D01*
X13750000Y141750000D02*
X16500000Y139000000D01*
X13750000Y145750000D02*
X13750000Y141750000D01*
X10250000Y149250000D02*
X13750000Y145750000D01*
X3750000Y149250000D02*
X10250000Y149250000D01*
X2250000Y147750000D02*
X3750000Y149250000D01*
X4250000Y86620000D02*
X4130000Y86620000D01*
X4130000Y86620000D02*
X2250000Y88500000D01*
X2250000Y88500000D02*
X2250000Y125250000D01*
X2250000Y125250000D02*
X2250000Y125500000D01*
X8250000Y86500000D02*
X4370000Y86500000D01*
X4370000Y86500000D02*
X4250000Y86620000D01*
X52358000Y45458000D02*
X62542000Y45458000D01*
X79250000Y15500000D02*
X87750000Y15500000D01*
X71250000Y23500000D02*
X79250000Y15500000D01*
X71250000Y36750000D02*
X71250000Y23500000D01*
X62542000Y45458000D02*
X71250000Y36750000D01*
X52358000Y47998000D02*
X51252000Y47998000D01*
X51252000Y47998000D02*
X47649998Y51600002D01*
X47649998Y51600002D02*
X47649998Y59100002D01*
X47649998Y59100002D02*
X46052000Y60698000D01*
X46052000Y60698000D02*
X41972000Y60698000D01*
X41972000Y60698000D02*
X41870000Y60800000D01*
X48012000Y63238000D02*
X41972000Y63238000D01*
X41972000Y63238000D02*
X41870000Y63340000D01*
X52358000Y53078000D02*
X50672000Y53078000D01*
X49250000Y62000000D02*
X48012000Y63238000D01*
X49250000Y54500000D02*
X49250000Y62000000D01*
X50672000Y53078000D02*
X49250000Y54500000D01*
X52358000Y65778000D02*
X41972000Y65778000D01*
X41972000Y65778000D02*
X41870000Y65880000D01*
X52358000Y68318000D02*
X41972000Y68318000D01*
X41972000Y68318000D02*
X41870000Y68420000D01*
X52358000Y70858000D02*
X41972000Y70858000D01*
X41972000Y70858000D02*
X41870000Y70960000D01*
X52358000Y73398000D02*
X41972000Y73398000D01*
X41972000Y73398000D02*
X41870000Y73500000D01*
D34*
X56750000Y146500000D02*
X56750000Y145500000D01*
X56750000Y145500000D02*
X60250000Y142000000D01*
X60250000Y142000000D02*
X60250000Y136000000D01*
X70750000Y117750000D02*
X70875000Y117625000D01*
X70750000Y117500000D02*
X70875000Y117625000D01*
X70875000Y117625000D02*
X77250000Y124000000D01*
X5750000Y92000000D02*
X18750000Y105000000D01*
X51250000Y117500000D02*
X70750000Y117500000D01*
X38750000Y105000000D02*
X51250000Y117500000D01*
X18750000Y105000000D02*
X38750000Y105000000D01*
D33*
X77250000Y146000000D02*
X76750000Y146500000D01*
X76750000Y146500000D02*
X68830000Y146500000D01*
X31750000Y92000000D02*
X35750000Y96000000D01*
X38750000Y96000000D02*
X44250000Y96000000D01*
X35750000Y96000000D02*
X38750000Y96000000D01*
X44250000Y96000000D02*
X44500000Y95250000D01*
X31290000Y70960000D02*
X30500000Y71750000D01*
X34250000Y70960000D02*
X31290000Y70960000D01*
X36750000Y87750000D02*
X38500000Y87750000D01*
X30500000Y81500000D02*
X36750000Y87750000D01*
X30500000Y71750000D02*
X30500000Y81500000D01*
X34250000Y68420000D02*
X31080000Y68420000D01*
X36487256Y89750000D02*
X38500000Y89750000D01*
X28750000Y82012744D02*
X36487256Y89750000D01*
X28750000Y70750000D02*
X28750000Y82012744D01*
X31080000Y68420000D02*
X28750000Y70750000D01*
X34250000Y68420000D02*
X33317256Y68420000D01*
X11750000Y43810000D02*
X11750000Y44000000D01*
X11750000Y44000000D02*
X15000000Y47250000D01*
X15000000Y47250000D02*
X17250000Y47250000D01*
X17250000Y47250000D02*
X21960000Y51960000D01*
X21960000Y51960000D02*
X23370000Y51960000D01*
X27750000Y54000000D02*
X27750000Y61500000D01*
X25710000Y51960000D02*
X27750000Y54000000D01*
X23370000Y51960000D02*
X25710000Y51960000D01*
X32130000Y65880000D02*
X34250000Y65880000D01*
X27750000Y61500000D02*
X32130000Y65880000D01*
X54750000Y11000000D02*
X58250000Y11000000D01*
X41870000Y48100000D02*
X42900000Y48100000D01*
X42900000Y48100000D02*
X44250000Y46750000D01*
X44250000Y21500000D02*
X54750000Y11000000D01*
X44250000Y46750000D02*
X44250000Y21500000D01*
X41870000Y48100000D02*
X41100000Y48100000D01*
X55250000Y15000000D02*
X58250000Y15000000D01*
X44506372Y49753628D02*
X44506372Y48756372D01*
X44506372Y48756372D02*
X45850002Y47412742D01*
X45850002Y47412742D02*
X45850002Y24399998D01*
X45850002Y24399998D02*
X55250000Y15000000D01*
X43620000Y50640000D02*
X41870000Y50640000D01*
X43620000Y50640000D02*
X44506372Y49753628D01*
X50000000Y84250000D02*
X84000000Y118250000D01*
X47250000Y81500000D02*
X50000000Y84250000D01*
X35050000Y60800000D02*
X37750000Y63500000D01*
X41250000Y81500000D02*
X45500000Y81500000D01*
X37750000Y78000000D02*
X41250000Y81500000D01*
X37750000Y63500000D02*
X37750000Y78000000D01*
X45500000Y81500000D02*
X47250000Y81500000D01*
X84000000Y135060000D02*
X85940000Y137000000D01*
X84000000Y118250000D02*
X84000000Y135060000D01*
X34250000Y60800000D02*
X35050000Y60800000D01*
X34250000Y60800000D02*
X34800000Y60800000D01*
X60250000Y13000000D02*
X58250000Y13000000D01*
X34250000Y24500000D02*
X50750000Y8000000D01*
X50750000Y8000000D02*
X59750000Y8000000D01*
X59750000Y8000000D02*
X61250000Y9500000D01*
X61250000Y9500000D02*
X61250000Y12000000D01*
X61250000Y12000000D02*
X60250000Y13000000D01*
X34250000Y24500000D02*
X34250000Y40480000D01*
D34*
X51670000Y146500000D02*
X51670000Y144580000D01*
X53750000Y132500000D02*
X51750000Y132500000D01*
X56250000Y135000000D02*
X53750000Y132500000D01*
X56250000Y140000000D02*
X56250000Y135000000D01*
X51670000Y144580000D02*
X56250000Y140000000D01*
X41750000Y145750000D02*
X41750000Y148000000D01*
X63750000Y148000000D02*
X63750000Y146500000D01*
X60750000Y151000000D02*
X63750000Y148000000D01*
X44750000Y151000000D02*
X60750000Y151000000D01*
X41750000Y148000000D02*
X44750000Y151000000D01*
D33*
X82330000Y145580000D02*
X71750000Y135000000D01*
X85630000Y145580000D02*
X82330000Y145580000D01*
X46250000Y133000000D02*
X42750000Y136500000D01*
X46250000Y128500000D02*
X46250000Y133000000D01*
X49750000Y125000000D02*
X46250000Y128500000D01*
X57500000Y125000000D02*
X49750000Y125000000D01*
X61000000Y128500000D02*
X57500000Y125000000D01*
X61000000Y130500000D02*
X61000000Y128500000D01*
X65500000Y135000000D02*
X61000000Y130500000D01*
X71750000Y135000000D02*
X65500000Y135000000D01*
D34*
X5750000Y145500000D02*
X5750000Y140000000D01*
X40000000Y133750000D02*
X42750000Y136500000D01*
X12000000Y133750000D02*
X40000000Y133750000D01*
X5750000Y140000000D02*
X12000000Y133750000D01*
X51750000Y136500000D02*
X42750000Y136500000D01*
X42750000Y136500000D02*
X42500000Y136500000D01*
X37051000Y141949000D02*
X37051000Y145750000D01*
X42500000Y136500000D02*
X37051000Y141949000D01*
D33*
X43500000Y84440000D02*
X42810000Y83750000D01*
X42810000Y83750000D02*
X38500000Y83750000D01*
X38500000Y83750000D02*
X39250000Y83750000D01*
X10750000Y29000000D02*
X11250000Y28500000D01*
X11250000Y28500000D02*
X16440000Y28500000D01*
D34*
X51750000Y128500000D02*
X56440000Y128500000D01*
X56440000Y128500000D02*
X57940000Y130000000D01*
D33*
X93560000Y137000000D02*
X93560000Y140190000D01*
X93560000Y140190000D02*
X93250000Y140500000D01*
X71000000Y130000000D02*
X81500000Y140500000D01*
X65560000Y130000000D02*
X71000000Y130000000D01*
X81500000Y140500000D02*
X85630000Y140500000D01*
X15750000Y54500000D02*
X21750000Y60500000D01*
X32940000Y101190000D02*
X37250000Y101190000D01*
X25500000Y93750000D02*
X32940000Y101190000D01*
X25500000Y80250000D02*
X25500000Y93750000D01*
X21750000Y76500000D02*
X25500000Y80250000D01*
X21750000Y60500000D02*
X21750000Y76500000D01*
X37250000Y101190000D02*
X37040002Y101190000D01*
X48250000Y47810000D02*
X46500000Y49560000D01*
X44530000Y55720000D02*
X41870000Y55720000D01*
X46000000Y54250000D02*
X44530000Y55720000D01*
X46000000Y50750000D02*
X46000000Y54250000D01*
X46500000Y50250000D02*
X46000000Y50750000D01*
X46500000Y49560000D02*
X46500000Y50250000D01*
D35*
G36*
X86407306Y96927754D02*
X87115116Y96633845D01*
X87881521Y96633176D01*
X88279561Y96797643D01*
X86490959Y95009041D01*
X86181624Y94546089D01*
X86073000Y94000000D01*
X86073000Y92367000D01*
X84811245Y92367000D01*
X84527397Y92367248D01*
X84002725Y92150457D01*
X83600953Y91749386D01*
X83383248Y91225093D01*
X83382752Y90657397D01*
X83599543Y90132725D01*
X84000614Y89730953D01*
X84524907Y89513248D01*
X85092603Y89512752D01*
X85093203Y89513000D01*
X86073000Y89513000D01*
X86073000Y79927000D01*
X84501245Y79927000D01*
X84217397Y79927248D01*
X83692725Y79710457D01*
X83290953Y79309386D01*
X83073248Y78785093D01*
X83072752Y78217397D01*
X83289543Y77692725D01*
X83690614Y77290953D01*
X84214907Y77073248D01*
X84782603Y77072752D01*
X84783203Y77073000D01*
X85823000Y77073000D01*
X85823000Y54927000D01*
X84501245Y54927000D01*
X84217397Y54927248D01*
X83692725Y54710457D01*
X83290953Y54309386D01*
X83073248Y53785093D01*
X83072752Y53217397D01*
X83289543Y52692725D01*
X83690614Y52290953D01*
X84214907Y52073248D01*
X84782603Y52072752D01*
X84783203Y52073000D01*
X85823000Y52073000D01*
X85823000Y31427000D01*
X85001245Y31427000D01*
X84717397Y31427248D01*
X84192725Y31210457D01*
X83790953Y30809386D01*
X83573248Y30285093D01*
X83572752Y29717397D01*
X83789543Y29192725D01*
X84190614Y28790953D01*
X84714907Y28573248D01*
X85282603Y28572752D01*
X85283203Y28573000D01*
X86642418Y28573000D01*
X86847306Y28367754D01*
X87555116Y28073845D01*
X88321521Y28073176D01*
X89029843Y28365849D01*
X89572246Y28907306D01*
X89866155Y29615116D01*
X89866824Y30381521D01*
X89574151Y31089843D01*
X89032694Y31632246D01*
X88677000Y31779943D01*
X88677000Y31859024D01*
X89011997Y31719921D01*
X91740959Y28990958D01*
X92203911Y28681624D01*
X92750000Y28573000D01*
X94262418Y28573000D01*
X94467306Y28367754D01*
X95175116Y28073845D01*
X95941521Y28073176D01*
X96498000Y28303109D01*
X96498000Y1002000D01*
X1002000Y1002000D01*
X1002000Y24808586D01*
X1240959Y24450959D01*
X3132833Y22559084D01*
X3132684Y22388182D01*
X3410242Y21716440D01*
X3923736Y21202048D01*
X4594993Y20923318D01*
X5321818Y20922684D01*
X5993560Y21200242D01*
X6507952Y21713736D01*
X6786682Y22384993D01*
X6787316Y23111818D01*
X6509758Y23783560D01*
X5996264Y24297952D01*
X5325007Y24576682D01*
X5151249Y24576834D01*
X3677000Y26051082D01*
X3677000Y26142418D01*
X3882246Y26347306D01*
X4176155Y27055116D01*
X4176824Y27821521D01*
X3884151Y28529843D01*
X3342694Y29072246D01*
X2634884Y29366155D01*
X1868479Y29366824D01*
X1160157Y29074151D01*
X1002000Y28916270D01*
X1002000Y29650000D01*
X8904839Y29650000D01*
X8904839Y28350000D01*
X8969478Y28006474D01*
X9172501Y27690967D01*
X9482279Y27479304D01*
X9850000Y27404839D01*
X10369845Y27404839D01*
X10703911Y27181624D01*
X11250000Y27073000D01*
X15142418Y27073000D01*
X15347306Y26867754D01*
X16055116Y26573845D01*
X16821521Y26573176D01*
X17529843Y26865849D01*
X18072246Y27407306D01*
X18366155Y28115116D01*
X18366824Y28881521D01*
X18074151Y29589843D01*
X17532694Y30132246D01*
X16824884Y30426155D01*
X16058479Y30426824D01*
X15350157Y30134151D01*
X15142644Y29927000D01*
X12543040Y29927000D01*
X12530522Y29993526D01*
X12327499Y30309033D01*
X12017721Y30520696D01*
X11650000Y30595161D01*
X9850000Y30595161D01*
X9506474Y30530522D01*
X9190967Y30327499D01*
X8979304Y30017721D01*
X8904839Y29650000D01*
X1002000Y29650000D01*
X1002000Y33583331D01*
X1157306Y33427754D01*
X1865116Y33133845D01*
X2631521Y33133176D01*
X3339843Y33425849D01*
X3882246Y33967306D01*
X4176155Y34675116D01*
X4176824Y35441521D01*
X3884151Y36149843D01*
X3677000Y36357356D01*
X3677000Y36750000D01*
X3568376Y37296089D01*
X3561539Y37306321D01*
X3259042Y37759041D01*
X2677000Y38341082D01*
X2677000Y46408918D01*
X3822921Y47554839D01*
X4750000Y47554839D01*
X5093526Y47619478D01*
X5409033Y47822501D01*
X5620696Y48132279D01*
X5695161Y48500000D01*
X5695161Y50500000D01*
X5630522Y50843526D01*
X5427499Y51159033D01*
X5177000Y51330192D01*
X5177000Y54408917D01*
X5259042Y54490959D01*
X5568376Y54953911D01*
X5677000Y55500000D01*
X5677000Y56837540D01*
X5809033Y56922501D01*
X6020696Y57232279D01*
X6095161Y57600000D01*
X6095161Y59400000D01*
X6030522Y59743526D01*
X5827499Y60059033D01*
X5677000Y60161865D01*
X5677000Y63408918D01*
X6091082Y63823000D01*
X10250000Y63823000D01*
X10796089Y63931624D01*
X11259041Y64240959D01*
X15259041Y68240958D01*
X15568376Y68703910D01*
X15586398Y68794512D01*
X15677000Y69250000D01*
X15677000Y76087540D01*
X15809033Y76172501D01*
X16020696Y76482279D01*
X16095161Y76850000D01*
X16095161Y78650000D01*
X16030522Y78993526D01*
X15827499Y79309033D01*
X15517721Y79520696D01*
X15150000Y79595161D01*
X13350000Y79595161D01*
X13006474Y79530522D01*
X12690967Y79327499D01*
X12479304Y79017721D01*
X12404839Y78650000D01*
X12404839Y76850000D01*
X12469478Y76506474D01*
X12672501Y76190967D01*
X12823000Y76088135D01*
X12823000Y69841083D01*
X11677172Y68695254D01*
X11677248Y68782603D01*
X11460457Y69307275D01*
X11059386Y69709047D01*
X10535093Y69926752D01*
X9967397Y69927248D01*
X9966797Y69927000D01*
X9748112Y69927000D01*
X9727499Y69959033D01*
X9417721Y70170696D01*
X9050000Y70245161D01*
X7450000Y70245161D01*
X7106474Y70180522D01*
X6790967Y69977499D01*
X6674470Y69807000D01*
X5213768Y69807000D01*
X4910894Y70009374D01*
X4250000Y70140834D01*
X3824224Y70056142D01*
X5259041Y71490959D01*
X5568376Y71953911D01*
X5677000Y72500000D01*
X5677000Y74501888D01*
X5709033Y74522501D01*
X5920696Y74832279D01*
X5995161Y75200000D01*
X5995161Y76800000D01*
X5930522Y77143526D01*
X5727499Y77459033D01*
X5677000Y77493538D01*
X5677000Y77501888D01*
X5709033Y77522501D01*
X5920696Y77832279D01*
X5995161Y78200000D01*
X5995161Y79800000D01*
X5930522Y80143526D01*
X5727499Y80459033D01*
X5417721Y80670696D01*
X5050000Y80745161D01*
X3450000Y80745161D01*
X3106474Y80680522D01*
X2790967Y80477499D01*
X2579304Y80167721D01*
X2504839Y79800000D01*
X2504839Y78200000D01*
X2569478Y77856474D01*
X2772501Y77540967D01*
X2823000Y77506462D01*
X2823000Y77498112D01*
X2790967Y77477499D01*
X2579304Y77167721D01*
X2504839Y76800000D01*
X2504839Y75200000D01*
X2569478Y74856474D01*
X2772501Y74540967D01*
X2823000Y74506462D01*
X2823000Y73091082D01*
X1002000Y71270082D01*
X1002000Y87848586D01*
X1240959Y87490959D01*
X2616672Y86115245D01*
X2654460Y85925272D01*
X3028827Y85364993D01*
X3589106Y84990626D01*
X4250000Y84859166D01*
X4910894Y84990626D01*
X5034175Y85073000D01*
X6751888Y85073000D01*
X6772501Y85040967D01*
X7082279Y84829304D01*
X7450000Y84754839D01*
X9050000Y84754839D01*
X9393526Y84819478D01*
X9709033Y85022501D01*
X9743538Y85073000D01*
X16658918Y85073000D01*
X18722998Y83008919D01*
X18722998Y67991081D01*
X17990961Y67259043D01*
X17990958Y67259041D01*
X11990959Y61259041D01*
X11681624Y60796089D01*
X11573000Y60250000D01*
X11573000Y54695082D01*
X10757000Y55511082D01*
X10757000Y57356763D01*
X11053721Y57800837D01*
X11192793Y58500000D01*
X11053721Y59199163D01*
X10757000Y59643237D01*
X10757000Y62248755D01*
X10757248Y62532603D01*
X10540457Y63057275D01*
X10139386Y63459047D01*
X9615093Y63676752D01*
X9047397Y63677248D01*
X8522725Y63460457D01*
X8120953Y63059386D01*
X7903248Y62535093D01*
X7902752Y61967397D01*
X7903000Y61966797D01*
X7903000Y59643237D01*
X7606279Y59199163D01*
X7467207Y58500000D01*
X7606279Y57800837D01*
X7903000Y57356763D01*
X7903000Y54920000D01*
X7995711Y54453911D01*
X8011624Y54373911D01*
X8320959Y53910959D01*
X9823000Y52408918D01*
X9823000Y48591083D01*
X9658918Y48427000D01*
X7750000Y48427000D01*
X7245402Y48326629D01*
X7203911Y48318376D01*
X6740959Y48009041D01*
X4740959Y46009041D01*
X4431624Y45546089D01*
X4323000Y45000000D01*
X4323000Y41998112D01*
X4290967Y41977499D01*
X4079304Y41667721D01*
X4004839Y41300000D01*
X4004839Y39700000D01*
X4069478Y39356474D01*
X4272501Y39040967D01*
X4379062Y38968157D01*
X4420658Y38759041D01*
X4431624Y38703911D01*
X4740959Y38240959D01*
X7800959Y35180958D01*
X8181035Y34927000D01*
X8263911Y34871624D01*
X8810000Y34763000D01*
X10323000Y34763000D01*
X10323000Y34001245D01*
X10322752Y33717397D01*
X10539543Y33192725D01*
X10940614Y32790953D01*
X11464907Y32573248D01*
X12032603Y32572752D01*
X12557275Y32789543D01*
X12959047Y33190614D01*
X13176752Y33714907D01*
X13177248Y34282603D01*
X13177000Y34283203D01*
X13177000Y34892418D01*
X13382246Y35097306D01*
X13676155Y35805116D01*
X13676824Y36571521D01*
X13384151Y37279843D01*
X12842694Y37822246D01*
X12134884Y38116155D01*
X11368479Y38116824D01*
X10660157Y37824151D01*
X10452644Y37617000D01*
X9401083Y37617000D01*
X7465341Y39552742D01*
X7495161Y39700000D01*
X7495161Y41300000D01*
X7430522Y41643526D01*
X7227499Y41959033D01*
X7177000Y41993538D01*
X7177000Y44408918D01*
X8341082Y45573000D01*
X10250000Y45573000D01*
X10796089Y45681624D01*
X11259041Y45990959D01*
X12259042Y46990959D01*
X12568376Y47453911D01*
X12677000Y48000000D01*
X12677000Y51304918D01*
X13030959Y50950959D01*
X13493911Y50641624D01*
X14017825Y50537411D01*
X13712790Y50080894D01*
X13581330Y49420000D01*
X13712790Y48759106D01*
X14029649Y48284893D01*
X13990959Y48259041D01*
X11468655Y45736737D01*
X11368479Y45736824D01*
X10660157Y45444151D01*
X10117754Y44902694D01*
X9823845Y44194884D01*
X9823176Y43428479D01*
X10115849Y42720157D01*
X10657306Y42177754D01*
X11365116Y41883845D01*
X12131521Y41883176D01*
X12839843Y42175849D01*
X13382246Y42717306D01*
X13676155Y43425116D01*
X13676577Y43908495D01*
X15591082Y45823000D01*
X17250000Y45823000D01*
X17796089Y45931624D01*
X18259041Y46240959D01*
X22363445Y50345363D01*
X22928330Y50233000D01*
X23811670Y50233000D01*
X24472564Y50364460D01*
X24496518Y50380466D01*
X24431624Y50283345D01*
X24323000Y49737256D01*
X24323000Y45341082D01*
X23908918Y44927000D01*
X23250000Y44927000D01*
X22703911Y44818376D01*
X22240959Y44509041D01*
X18908918Y41177000D01*
X17265707Y41177000D01*
X17229544Y41213226D01*
X16595029Y41476700D01*
X15907986Y41477299D01*
X15273011Y41214933D01*
X14786774Y40729544D01*
X14523300Y40095029D01*
X14522772Y39489126D01*
X14513000Y39440000D01*
X14513000Y37797582D01*
X14307754Y37592694D01*
X14013845Y36884884D01*
X14013176Y36118479D01*
X14305849Y35410157D01*
X14847306Y34867754D01*
X15555116Y34573845D01*
X16321521Y34573176D01*
X17029843Y34865849D01*
X17572246Y35407306D01*
X17866155Y36115116D01*
X17866824Y36881521D01*
X17574151Y37589843D01*
X17367000Y37797356D01*
X17367000Y38323000D01*
X19500000Y38323000D01*
X20046089Y38431624D01*
X20509041Y38740959D01*
X22067543Y40299461D01*
X22133000Y40141042D01*
X22133000Y37797582D01*
X21927754Y37592694D01*
X21633845Y36884884D01*
X21633176Y36118479D01*
X21753692Y35826809D01*
X21250000Y35927000D01*
X19751245Y35927000D01*
X19467397Y35927248D01*
X18942725Y35710457D01*
X18540953Y35309386D01*
X18323248Y34785093D01*
X18322752Y34217397D01*
X18323000Y34216797D01*
X18323000Y32810000D01*
X18415489Y32345029D01*
X18431624Y32263911D01*
X18740959Y31800959D01*
X22133429Y28408488D01*
X22133176Y28118479D01*
X22425849Y27410157D01*
X22967306Y26867754D01*
X23675116Y26573845D01*
X24441521Y26573176D01*
X25149843Y26865849D01*
X25692246Y27407306D01*
X25986155Y28115116D01*
X25986824Y28881521D01*
X25694151Y29589843D01*
X25487000Y29797356D01*
X25487000Y31690000D01*
X25476775Y31741403D01*
X25477299Y32342014D01*
X25214933Y32976989D01*
X24729544Y33463226D01*
X24095029Y33726700D01*
X24041335Y33726747D01*
X23194254Y34573828D01*
X23941521Y34573176D01*
X24649843Y34865849D01*
X25192246Y35407306D01*
X25486155Y36115116D01*
X25486824Y36881521D01*
X25194151Y37589843D01*
X24987000Y37797356D01*
X24987000Y39544625D01*
X25213226Y39770456D01*
X25328221Y40047395D01*
X28759041Y43478215D01*
X29068376Y43941167D01*
X29094599Y44073000D01*
X29177000Y44487256D01*
X29177000Y48408918D01*
X29981083Y49213000D01*
X32514878Y49213000D01*
X32212790Y48760894D01*
X32081330Y48100000D01*
X32212790Y47439106D01*
X32587157Y46878827D01*
X32660232Y46830000D01*
X32587157Y46781173D01*
X32212790Y46220894D01*
X32081330Y45560000D01*
X32212790Y44899106D01*
X32587157Y44338827D01*
X32660232Y44290000D01*
X32587157Y44241173D01*
X32212790Y43680894D01*
X32081330Y43020000D01*
X32212790Y42359106D01*
X32587157Y41798827D01*
X32660232Y41750000D01*
X32587157Y41701173D01*
X32212790Y41140894D01*
X32081330Y40480000D01*
X32212790Y39819106D01*
X32587157Y39258827D01*
X32823000Y39101242D01*
X32823000Y24500000D01*
X32894286Y24141624D01*
X32931624Y23953911D01*
X33240959Y23490959D01*
X49740959Y6990958D01*
X50203911Y6681624D01*
X50750000Y6573000D01*
X59750000Y6573000D01*
X60296089Y6681624D01*
X60759041Y6990959D01*
X62259041Y8490958D01*
X62568376Y8953910D01*
X62613671Y9181624D01*
X62677000Y9500000D01*
X62677000Y10217397D01*
X83572752Y10217397D01*
X83789543Y9692725D01*
X84190614Y9290953D01*
X84714907Y9073248D01*
X85282603Y9072752D01*
X85283203Y9073000D01*
X86098452Y9073000D01*
X86515218Y8655505D01*
X87315068Y8323379D01*
X88181132Y8322623D01*
X88981560Y8653353D01*
X89594495Y9265218D01*
X89926621Y10065068D01*
X89927377Y10931132D01*
X89596647Y11731560D01*
X88984782Y12344495D01*
X88184932Y12676621D01*
X87318868Y12677377D01*
X86518440Y12346647D01*
X86098059Y11927000D01*
X85001245Y11927000D01*
X84717397Y11927248D01*
X84192725Y11710457D01*
X83790953Y11309386D01*
X83573248Y10785093D01*
X83572752Y10217397D01*
X62677000Y10217397D01*
X62677000Y12000000D01*
X62568376Y12546089D01*
X62480652Y12677377D01*
X62259042Y13009041D01*
X61259041Y14009041D01*
X60796089Y14318376D01*
X60250000Y14427000D01*
X59998816Y14427000D01*
X60112793Y15000000D01*
X59992751Y15603492D01*
X59727812Y16000000D01*
X59992751Y16396508D01*
X60112793Y17000000D01*
X59992751Y17603492D01*
X59650900Y18115107D01*
X59139285Y18456958D01*
X58535793Y18577000D01*
X57964207Y18577000D01*
X57360715Y18456958D01*
X57315880Y18427000D01*
X56001245Y18427000D01*
X55717397Y18427248D01*
X55192725Y18210457D01*
X54790953Y17809386D01*
X54693468Y17574615D01*
X47277002Y24991080D01*
X47277002Y34398258D01*
X49930579Y34398258D01*
X50299290Y33505911D01*
X50981420Y32822589D01*
X51873122Y32452322D01*
X52838642Y32451479D01*
X53730989Y32820190D01*
X54414311Y33502320D01*
X54784578Y34394022D01*
X54785421Y35359542D01*
X54416710Y36251889D01*
X53734580Y36935211D01*
X52842878Y37305478D01*
X51877358Y37306321D01*
X50985011Y36937610D01*
X50301689Y36255480D01*
X49931422Y35363778D01*
X49930579Y34398258D01*
X47277002Y34398258D01*
X47277002Y38508052D01*
X47865116Y38263845D01*
X48631521Y38263176D01*
X49339843Y38555849D01*
X49882246Y39097306D01*
X50176155Y39805116D01*
X50176824Y40571521D01*
X49884151Y41279843D01*
X49716185Y41448103D01*
X49759083Y41491000D01*
X50824701Y41491000D01*
X51215207Y41230072D01*
X51914370Y41091000D01*
X52801630Y41091000D01*
X53500793Y41230072D01*
X54093514Y41626116D01*
X54489558Y42218837D01*
X54628630Y42918000D01*
X54489558Y43617163D01*
X54213041Y44031000D01*
X61950918Y44031000D01*
X69823000Y36158917D01*
X69823000Y23500000D01*
X69906221Y23081622D01*
X69931624Y22953911D01*
X70240959Y22490959D01*
X78240958Y14490959D01*
X78499247Y14318376D01*
X78703911Y14181624D01*
X79250000Y14073000D01*
X86098452Y14073000D01*
X86515218Y13655505D01*
X87315068Y13323379D01*
X88181132Y13322623D01*
X88981560Y13653353D01*
X89594495Y14265218D01*
X89926621Y15065068D01*
X89927377Y15931132D01*
X89596647Y16731560D01*
X88984782Y17344495D01*
X88184932Y17676621D01*
X87318868Y17677377D01*
X86518440Y17346647D01*
X86098059Y16927000D01*
X79841083Y16927000D01*
X72677000Y24091082D01*
X72677000Y34398258D01*
X80931279Y34398258D01*
X81299990Y33505911D01*
X81982120Y32822589D01*
X82873822Y32452322D01*
X83839342Y32451479D01*
X84731689Y32820190D01*
X85415011Y33502320D01*
X85785278Y34394022D01*
X85786121Y35359542D01*
X85417410Y36251889D01*
X84735280Y36935211D01*
X83843578Y37305478D01*
X82878058Y37306321D01*
X81985711Y36937610D01*
X81302389Y36255480D01*
X80932122Y35363778D01*
X80931279Y34398258D01*
X72677000Y34398258D01*
X72677000Y36750000D01*
X72568376Y37296089D01*
X72561539Y37306321D01*
X72259042Y37759041D01*
X63551041Y46467041D01*
X63088089Y46776376D01*
X63063973Y46781173D01*
X62542000Y46885000D01*
X54213041Y46885000D01*
X54489558Y47298837D01*
X54628630Y47998000D01*
X54489558Y48697163D01*
X54093514Y49289884D01*
X53500793Y49685928D01*
X52801630Y49825000D01*
X51914370Y49825000D01*
X51521274Y49746808D01*
X49076998Y52191084D01*
X49076998Y52654919D01*
X49662959Y52068958D01*
X49964083Y51867754D01*
X50125911Y51759624D01*
X50672000Y51651000D01*
X50824701Y51651000D01*
X51215207Y51390072D01*
X51914370Y51251000D01*
X52801630Y51251000D01*
X53500793Y51390072D01*
X54093514Y51786116D01*
X54489558Y52378837D01*
X54628630Y53078000D01*
X54489558Y53777163D01*
X54108136Y54348000D01*
X54489558Y54918837D01*
X54628630Y55618000D01*
X54489558Y56317163D01*
X54108136Y56888000D01*
X54489558Y57458837D01*
X54628630Y58158000D01*
X54489558Y58857163D01*
X54108136Y59428000D01*
X54489558Y59998837D01*
X54628630Y60698000D01*
X54489558Y61397163D01*
X54108136Y61968000D01*
X54489558Y62538837D01*
X54628630Y63238000D01*
X54489558Y63937163D01*
X54108136Y64508000D01*
X54489558Y65078837D01*
X54628630Y65778000D01*
X54489558Y66477163D01*
X54108136Y67048000D01*
X54489558Y67618837D01*
X54628630Y68318000D01*
X54489558Y69017163D01*
X54108136Y69588000D01*
X54489558Y70158837D01*
X54628630Y70858000D01*
X54489558Y71557163D01*
X54108136Y72128000D01*
X54489558Y72698837D01*
X54628630Y73398000D01*
X54489558Y74097163D01*
X54108136Y74668000D01*
X54489558Y75238837D01*
X54628630Y75938000D01*
X54489558Y76637163D01*
X54093514Y77229884D01*
X53500793Y77625928D01*
X52801630Y77765000D01*
X51914370Y77765000D01*
X51215207Y77625928D01*
X50824701Y77365000D01*
X49883082Y77365000D01*
X52091083Y79573000D01*
X56408918Y79573000D01*
X58573000Y77408917D01*
X58573000Y61750000D01*
X58643184Y61397163D01*
X58681624Y61203911D01*
X58990959Y60740959D01*
X63990365Y55741552D01*
X64190614Y55540953D01*
X64714907Y55323248D01*
X65282603Y55322752D01*
X65807275Y55539543D01*
X66209047Y55940614D01*
X66426752Y56464907D01*
X66427248Y57032603D01*
X66210457Y57557275D01*
X65809386Y57959047D01*
X65808787Y57959296D01*
X61427000Y62341082D01*
X61427000Y78000000D01*
X61318376Y78546089D01*
X61318376Y78546090D01*
X61009041Y79009042D01*
X58259043Y81759039D01*
X58259041Y81759042D01*
X58009041Y82009041D01*
X57546089Y82318376D01*
X57000000Y82427000D01*
X56495078Y82427000D01*
X71201079Y97133000D01*
X86202418Y97133000D01*
X86407306Y96927754D01*
X86407306Y96927754D01*
G37*
X86407306Y96927754D02*
X87115116Y96633845D01*
X87881521Y96633176D01*
X88279561Y96797643D01*
X86490959Y95009041D01*
X86181624Y94546089D01*
X86073000Y94000000D01*
X86073000Y92367000D01*
X84811245Y92367000D01*
X84527397Y92367248D01*
X84002725Y92150457D01*
X83600953Y91749386D01*
X83383248Y91225093D01*
X83382752Y90657397D01*
X83599543Y90132725D01*
X84000614Y89730953D01*
X84524907Y89513248D01*
X85092603Y89512752D01*
X85093203Y89513000D01*
X86073000Y89513000D01*
X86073000Y79927000D01*
X84501245Y79927000D01*
X84217397Y79927248D01*
X83692725Y79710457D01*
X83290953Y79309386D01*
X83073248Y78785093D01*
X83072752Y78217397D01*
X83289543Y77692725D01*
X83690614Y77290953D01*
X84214907Y77073248D01*
X84782603Y77072752D01*
X84783203Y77073000D01*
X85823000Y77073000D01*
X85823000Y54927000D01*
X84501245Y54927000D01*
X84217397Y54927248D01*
X83692725Y54710457D01*
X83290953Y54309386D01*
X83073248Y53785093D01*
X83072752Y53217397D01*
X83289543Y52692725D01*
X83690614Y52290953D01*
X84214907Y52073248D01*
X84782603Y52072752D01*
X84783203Y52073000D01*
X85823000Y52073000D01*
X85823000Y31427000D01*
X85001245Y31427000D01*
X84717397Y31427248D01*
X84192725Y31210457D01*
X83790953Y30809386D01*
X83573248Y30285093D01*
X83572752Y29717397D01*
X83789543Y29192725D01*
X84190614Y28790953D01*
X84714907Y28573248D01*
X85282603Y28572752D01*
X85283203Y28573000D01*
X86642418Y28573000D01*
X86847306Y28367754D01*
X87555116Y28073845D01*
X88321521Y28073176D01*
X89029843Y28365849D01*
X89572246Y28907306D01*
X89866155Y29615116D01*
X89866824Y30381521D01*
X89574151Y31089843D01*
X89032694Y31632246D01*
X88677000Y31779943D01*
X88677000Y31859024D01*
X89011997Y31719921D01*
X91740959Y28990958D01*
X92203911Y28681624D01*
X92750000Y28573000D01*
X94262418Y28573000D01*
X94467306Y28367754D01*
X95175116Y28073845D01*
X95941521Y28073176D01*
X96498000Y28303109D01*
X96498000Y1002000D01*
X1002000Y1002000D01*
X1002000Y24808586D01*
X1240959Y24450959D01*
X3132833Y22559084D01*
X3132684Y22388182D01*
X3410242Y21716440D01*
X3923736Y21202048D01*
X4594993Y20923318D01*
X5321818Y20922684D01*
X5993560Y21200242D01*
X6507952Y21713736D01*
X6786682Y22384993D01*
X6787316Y23111818D01*
X6509758Y23783560D01*
X5996264Y24297952D01*
X5325007Y24576682D01*
X5151249Y24576834D01*
X3677000Y26051082D01*
X3677000Y26142418D01*
X3882246Y26347306D01*
X4176155Y27055116D01*
X4176824Y27821521D01*
X3884151Y28529843D01*
X3342694Y29072246D01*
X2634884Y29366155D01*
X1868479Y29366824D01*
X1160157Y29074151D01*
X1002000Y28916270D01*
X1002000Y29650000D01*
X8904839Y29650000D01*
X8904839Y28350000D01*
X8969478Y28006474D01*
X9172501Y27690967D01*
X9482279Y27479304D01*
X9850000Y27404839D01*
X10369845Y27404839D01*
X10703911Y27181624D01*
X11250000Y27073000D01*
X15142418Y27073000D01*
X15347306Y26867754D01*
X16055116Y26573845D01*
X16821521Y26573176D01*
X17529843Y26865849D01*
X18072246Y27407306D01*
X18366155Y28115116D01*
X18366824Y28881521D01*
X18074151Y29589843D01*
X17532694Y30132246D01*
X16824884Y30426155D01*
X16058479Y30426824D01*
X15350157Y30134151D01*
X15142644Y29927000D01*
X12543040Y29927000D01*
X12530522Y29993526D01*
X12327499Y30309033D01*
X12017721Y30520696D01*
X11650000Y30595161D01*
X9850000Y30595161D01*
X9506474Y30530522D01*
X9190967Y30327499D01*
X8979304Y30017721D01*
X8904839Y29650000D01*
X1002000Y29650000D01*
X1002000Y33583331D01*
X1157306Y33427754D01*
X1865116Y33133845D01*
X2631521Y33133176D01*
X3339843Y33425849D01*
X3882246Y33967306D01*
X4176155Y34675116D01*
X4176824Y35441521D01*
X3884151Y36149843D01*
X3677000Y36357356D01*
X3677000Y36750000D01*
X3568376Y37296089D01*
X3561539Y37306321D01*
X3259042Y37759041D01*
X2677000Y38341082D01*
X2677000Y46408918D01*
X3822921Y47554839D01*
X4750000Y47554839D01*
X5093526Y47619478D01*
X5409033Y47822501D01*
X5620696Y48132279D01*
X5695161Y48500000D01*
X5695161Y50500000D01*
X5630522Y50843526D01*
X5427499Y51159033D01*
X5177000Y51330192D01*
X5177000Y54408917D01*
X5259042Y54490959D01*
X5568376Y54953911D01*
X5677000Y55500000D01*
X5677000Y56837540D01*
X5809033Y56922501D01*
X6020696Y57232279D01*
X6095161Y57600000D01*
X6095161Y59400000D01*
X6030522Y59743526D01*
X5827499Y60059033D01*
X5677000Y60161865D01*
X5677000Y63408918D01*
X6091082Y63823000D01*
X10250000Y63823000D01*
X10796089Y63931624D01*
X11259041Y64240959D01*
X15259041Y68240958D01*
X15568376Y68703910D01*
X15586398Y68794512D01*
X15677000Y69250000D01*
X15677000Y76087540D01*
X15809033Y76172501D01*
X16020696Y76482279D01*
X16095161Y76850000D01*
X16095161Y78650000D01*
X16030522Y78993526D01*
X15827499Y79309033D01*
X15517721Y79520696D01*
X15150000Y79595161D01*
X13350000Y79595161D01*
X13006474Y79530522D01*
X12690967Y79327499D01*
X12479304Y79017721D01*
X12404839Y78650000D01*
X12404839Y76850000D01*
X12469478Y76506474D01*
X12672501Y76190967D01*
X12823000Y76088135D01*
X12823000Y69841083D01*
X11677172Y68695254D01*
X11677248Y68782603D01*
X11460457Y69307275D01*
X11059386Y69709047D01*
X10535093Y69926752D01*
X9967397Y69927248D01*
X9966797Y69927000D01*
X9748112Y69927000D01*
X9727499Y69959033D01*
X9417721Y70170696D01*
X9050000Y70245161D01*
X7450000Y70245161D01*
X7106474Y70180522D01*
X6790967Y69977499D01*
X6674470Y69807000D01*
X5213768Y69807000D01*
X4910894Y70009374D01*
X4250000Y70140834D01*
X3824224Y70056142D01*
X5259041Y71490959D01*
X5568376Y71953911D01*
X5677000Y72500000D01*
X5677000Y74501888D01*
X5709033Y74522501D01*
X5920696Y74832279D01*
X5995161Y75200000D01*
X5995161Y76800000D01*
X5930522Y77143526D01*
X5727499Y77459033D01*
X5677000Y77493538D01*
X5677000Y77501888D01*
X5709033Y77522501D01*
X5920696Y77832279D01*
X5995161Y78200000D01*
X5995161Y79800000D01*
X5930522Y80143526D01*
X5727499Y80459033D01*
X5417721Y80670696D01*
X5050000Y80745161D01*
X3450000Y80745161D01*
X3106474Y80680522D01*
X2790967Y80477499D01*
X2579304Y80167721D01*
X2504839Y79800000D01*
X2504839Y78200000D01*
X2569478Y77856474D01*
X2772501Y77540967D01*
X2823000Y77506462D01*
X2823000Y77498112D01*
X2790967Y77477499D01*
X2579304Y77167721D01*
X2504839Y76800000D01*
X2504839Y75200000D01*
X2569478Y74856474D01*
X2772501Y74540967D01*
X2823000Y74506462D01*
X2823000Y73091082D01*
X1002000Y71270082D01*
X1002000Y87848586D01*
X1240959Y87490959D01*
X2616672Y86115245D01*
X2654460Y85925272D01*
X3028827Y85364993D01*
X3589106Y84990626D01*
X4250000Y84859166D01*
X4910894Y84990626D01*
X5034175Y85073000D01*
X6751888Y85073000D01*
X6772501Y85040967D01*
X7082279Y84829304D01*
X7450000Y84754839D01*
X9050000Y84754839D01*
X9393526Y84819478D01*
X9709033Y85022501D01*
X9743538Y85073000D01*
X16658918Y85073000D01*
X18722998Y83008919D01*
X18722998Y67991081D01*
X17990961Y67259043D01*
X17990958Y67259041D01*
X11990959Y61259041D01*
X11681624Y60796089D01*
X11573000Y60250000D01*
X11573000Y54695082D01*
X10757000Y55511082D01*
X10757000Y57356763D01*
X11053721Y57800837D01*
X11192793Y58500000D01*
X11053721Y59199163D01*
X10757000Y59643237D01*
X10757000Y62248755D01*
X10757248Y62532603D01*
X10540457Y63057275D01*
X10139386Y63459047D01*
X9615093Y63676752D01*
X9047397Y63677248D01*
X8522725Y63460457D01*
X8120953Y63059386D01*
X7903248Y62535093D01*
X7902752Y61967397D01*
X7903000Y61966797D01*
X7903000Y59643237D01*
X7606279Y59199163D01*
X7467207Y58500000D01*
X7606279Y57800837D01*
X7903000Y57356763D01*
X7903000Y54920000D01*
X7995711Y54453911D01*
X8011624Y54373911D01*
X8320959Y53910959D01*
X9823000Y52408918D01*
X9823000Y48591083D01*
X9658918Y48427000D01*
X7750000Y48427000D01*
X7245402Y48326629D01*
X7203911Y48318376D01*
X6740959Y48009041D01*
X4740959Y46009041D01*
X4431624Y45546089D01*
X4323000Y45000000D01*
X4323000Y41998112D01*
X4290967Y41977499D01*
X4079304Y41667721D01*
X4004839Y41300000D01*
X4004839Y39700000D01*
X4069478Y39356474D01*
X4272501Y39040967D01*
X4379062Y38968157D01*
X4420658Y38759041D01*
X4431624Y38703911D01*
X4740959Y38240959D01*
X7800959Y35180958D01*
X8181035Y34927000D01*
X8263911Y34871624D01*
X8810000Y34763000D01*
X10323000Y34763000D01*
X10323000Y34001245D01*
X10322752Y33717397D01*
X10539543Y33192725D01*
X10940614Y32790953D01*
X11464907Y32573248D01*
X12032603Y32572752D01*
X12557275Y32789543D01*
X12959047Y33190614D01*
X13176752Y33714907D01*
X13177248Y34282603D01*
X13177000Y34283203D01*
X13177000Y34892418D01*
X13382246Y35097306D01*
X13676155Y35805116D01*
X13676824Y36571521D01*
X13384151Y37279843D01*
X12842694Y37822246D01*
X12134884Y38116155D01*
X11368479Y38116824D01*
X10660157Y37824151D01*
X10452644Y37617000D01*
X9401083Y37617000D01*
X7465341Y39552742D01*
X7495161Y39700000D01*
X7495161Y41300000D01*
X7430522Y41643526D01*
X7227499Y41959033D01*
X7177000Y41993538D01*
X7177000Y44408918D01*
X8341082Y45573000D01*
X10250000Y45573000D01*
X10796089Y45681624D01*
X11259041Y45990959D01*
X12259042Y46990959D01*
X12568376Y47453911D01*
X12677000Y48000000D01*
X12677000Y51304918D01*
X13030959Y50950959D01*
X13493911Y50641624D01*
X14017825Y50537411D01*
X13712790Y50080894D01*
X13581330Y49420000D01*
X13712790Y48759106D01*
X14029649Y48284893D01*
X13990959Y48259041D01*
X11468655Y45736737D01*
X11368479Y45736824D01*
X10660157Y45444151D01*
X10117754Y44902694D01*
X9823845Y44194884D01*
X9823176Y43428479D01*
X10115849Y42720157D01*
X10657306Y42177754D01*
X11365116Y41883845D01*
X12131521Y41883176D01*
X12839843Y42175849D01*
X13382246Y42717306D01*
X13676155Y43425116D01*
X13676577Y43908495D01*
X15591082Y45823000D01*
X17250000Y45823000D01*
X17796089Y45931624D01*
X18259041Y46240959D01*
X22363445Y50345363D01*
X22928330Y50233000D01*
X23811670Y50233000D01*
X24472564Y50364460D01*
X24496518Y50380466D01*
X24431624Y50283345D01*
X24323000Y49737256D01*
X24323000Y45341082D01*
X23908918Y44927000D01*
X23250000Y44927000D01*
X22703911Y44818376D01*
X22240959Y44509041D01*
X18908918Y41177000D01*
X17265707Y41177000D01*
X17229544Y41213226D01*
X16595029Y41476700D01*
X15907986Y41477299D01*
X15273011Y41214933D01*
X14786774Y40729544D01*
X14523300Y40095029D01*
X14522772Y39489126D01*
X14513000Y39440000D01*
X14513000Y37797582D01*
X14307754Y37592694D01*
X14013845Y36884884D01*
X14013176Y36118479D01*
X14305849Y35410157D01*
X14847306Y34867754D01*
X15555116Y34573845D01*
X16321521Y34573176D01*
X17029843Y34865849D01*
X17572246Y35407306D01*
X17866155Y36115116D01*
X17866824Y36881521D01*
X17574151Y37589843D01*
X17367000Y37797356D01*
X17367000Y38323000D01*
X19500000Y38323000D01*
X20046089Y38431624D01*
X20509041Y38740959D01*
X22067543Y40299461D01*
X22133000Y40141042D01*
X22133000Y37797582D01*
X21927754Y37592694D01*
X21633845Y36884884D01*
X21633176Y36118479D01*
X21753692Y35826809D01*
X21250000Y35927000D01*
X19751245Y35927000D01*
X19467397Y35927248D01*
X18942725Y35710457D01*
X18540953Y35309386D01*
X18323248Y34785093D01*
X18322752Y34217397D01*
X18323000Y34216797D01*
X18323000Y32810000D01*
X18415489Y32345029D01*
X18431624Y32263911D01*
X18740959Y31800959D01*
X22133429Y28408488D01*
X22133176Y28118479D01*
X22425849Y27410157D01*
X22967306Y26867754D01*
X23675116Y26573845D01*
X24441521Y26573176D01*
X25149843Y26865849D01*
X25692246Y27407306D01*
X25986155Y28115116D01*
X25986824Y28881521D01*
X25694151Y29589843D01*
X25487000Y29797356D01*
X25487000Y31690000D01*
X25476775Y31741403D01*
X25477299Y32342014D01*
X25214933Y32976989D01*
X24729544Y33463226D01*
X24095029Y33726700D01*
X24041335Y33726747D01*
X23194254Y34573828D01*
X23941521Y34573176D01*
X24649843Y34865849D01*
X25192246Y35407306D01*
X25486155Y36115116D01*
X25486824Y36881521D01*
X25194151Y37589843D01*
X24987000Y37797356D01*
X24987000Y39544625D01*
X25213226Y39770456D01*
X25328221Y40047395D01*
X28759041Y43478215D01*
X29068376Y43941167D01*
X29094599Y44073000D01*
X29177000Y44487256D01*
X29177000Y48408918D01*
X29981083Y49213000D01*
X32514878Y49213000D01*
X32212790Y48760894D01*
X32081330Y48100000D01*
X32212790Y47439106D01*
X32587157Y46878827D01*
X32660232Y46830000D01*
X32587157Y46781173D01*
X32212790Y46220894D01*
X32081330Y45560000D01*
X32212790Y44899106D01*
X32587157Y44338827D01*
X32660232Y44290000D01*
X32587157Y44241173D01*
X32212790Y43680894D01*
X32081330Y43020000D01*
X32212790Y42359106D01*
X32587157Y41798827D01*
X32660232Y41750000D01*
X32587157Y41701173D01*
X32212790Y41140894D01*
X32081330Y40480000D01*
X32212790Y39819106D01*
X32587157Y39258827D01*
X32823000Y39101242D01*
X32823000Y24500000D01*
X32894286Y24141624D01*
X32931624Y23953911D01*
X33240959Y23490959D01*
X49740959Y6990958D01*
X50203911Y6681624D01*
X50750000Y6573000D01*
X59750000Y6573000D01*
X60296089Y6681624D01*
X60759041Y6990959D01*
X62259041Y8490958D01*
X62568376Y8953910D01*
X62613671Y9181624D01*
X62677000Y9500000D01*
X62677000Y10217397D01*
X83572752Y10217397D01*
X83789543Y9692725D01*
X84190614Y9290953D01*
X84714907Y9073248D01*
X85282603Y9072752D01*
X85283203Y9073000D01*
X86098452Y9073000D01*
X86515218Y8655505D01*
X87315068Y8323379D01*
X88181132Y8322623D01*
X88981560Y8653353D01*
X89594495Y9265218D01*
X89926621Y10065068D01*
X89927377Y10931132D01*
X89596647Y11731560D01*
X88984782Y12344495D01*
X88184932Y12676621D01*
X87318868Y12677377D01*
X86518440Y12346647D01*
X86098059Y11927000D01*
X85001245Y11927000D01*
X84717397Y11927248D01*
X84192725Y11710457D01*
X83790953Y11309386D01*
X83573248Y10785093D01*
X83572752Y10217397D01*
X62677000Y10217397D01*
X62677000Y12000000D01*
X62568376Y12546089D01*
X62480652Y12677377D01*
X62259042Y13009041D01*
X61259041Y14009041D01*
X60796089Y14318376D01*
X60250000Y14427000D01*
X59998816Y14427000D01*
X60112793Y15000000D01*
X59992751Y15603492D01*
X59727812Y16000000D01*
X59992751Y16396508D01*
X60112793Y17000000D01*
X59992751Y17603492D01*
X59650900Y18115107D01*
X59139285Y18456958D01*
X58535793Y18577000D01*
X57964207Y18577000D01*
X57360715Y18456958D01*
X57315880Y18427000D01*
X56001245Y18427000D01*
X55717397Y18427248D01*
X55192725Y18210457D01*
X54790953Y17809386D01*
X54693468Y17574615D01*
X47277002Y24991080D01*
X47277002Y34398258D01*
X49930579Y34398258D01*
X50299290Y33505911D01*
X50981420Y32822589D01*
X51873122Y32452322D01*
X52838642Y32451479D01*
X53730989Y32820190D01*
X54414311Y33502320D01*
X54784578Y34394022D01*
X54785421Y35359542D01*
X54416710Y36251889D01*
X53734580Y36935211D01*
X52842878Y37305478D01*
X51877358Y37306321D01*
X50985011Y36937610D01*
X50301689Y36255480D01*
X49931422Y35363778D01*
X49930579Y34398258D01*
X47277002Y34398258D01*
X47277002Y38508052D01*
X47865116Y38263845D01*
X48631521Y38263176D01*
X49339843Y38555849D01*
X49882246Y39097306D01*
X50176155Y39805116D01*
X50176824Y40571521D01*
X49884151Y41279843D01*
X49716185Y41448103D01*
X49759083Y41491000D01*
X50824701Y41491000D01*
X51215207Y41230072D01*
X51914370Y41091000D01*
X52801630Y41091000D01*
X53500793Y41230072D01*
X54093514Y41626116D01*
X54489558Y42218837D01*
X54628630Y42918000D01*
X54489558Y43617163D01*
X54213041Y44031000D01*
X61950918Y44031000D01*
X69823000Y36158917D01*
X69823000Y23500000D01*
X69906221Y23081622D01*
X69931624Y22953911D01*
X70240959Y22490959D01*
X78240958Y14490959D01*
X78499247Y14318376D01*
X78703911Y14181624D01*
X79250000Y14073000D01*
X86098452Y14073000D01*
X86515218Y13655505D01*
X87315068Y13323379D01*
X88181132Y13322623D01*
X88981560Y13653353D01*
X89594495Y14265218D01*
X89926621Y15065068D01*
X89927377Y15931132D01*
X89596647Y16731560D01*
X88984782Y17344495D01*
X88184932Y17676621D01*
X87318868Y17677377D01*
X86518440Y17346647D01*
X86098059Y16927000D01*
X79841083Y16927000D01*
X72677000Y24091082D01*
X72677000Y34398258D01*
X80931279Y34398258D01*
X81299990Y33505911D01*
X81982120Y32822589D01*
X82873822Y32452322D01*
X83839342Y32451479D01*
X84731689Y32820190D01*
X85415011Y33502320D01*
X85785278Y34394022D01*
X85786121Y35359542D01*
X85417410Y36251889D01*
X84735280Y36935211D01*
X83843578Y37305478D01*
X82878058Y37306321D01*
X81985711Y36937610D01*
X81302389Y36255480D01*
X80932122Y35363778D01*
X80931279Y34398258D01*
X72677000Y34398258D01*
X72677000Y36750000D01*
X72568376Y37296089D01*
X72561539Y37306321D01*
X72259042Y37759041D01*
X63551041Y46467041D01*
X63088089Y46776376D01*
X63063973Y46781173D01*
X62542000Y46885000D01*
X54213041Y46885000D01*
X54489558Y47298837D01*
X54628630Y47998000D01*
X54489558Y48697163D01*
X54093514Y49289884D01*
X53500793Y49685928D01*
X52801630Y49825000D01*
X51914370Y49825000D01*
X51521274Y49746808D01*
X49076998Y52191084D01*
X49076998Y52654919D01*
X49662959Y52068958D01*
X49964083Y51867754D01*
X50125911Y51759624D01*
X50672000Y51651000D01*
X50824701Y51651000D01*
X51215207Y51390072D01*
X51914370Y51251000D01*
X52801630Y51251000D01*
X53500793Y51390072D01*
X54093514Y51786116D01*
X54489558Y52378837D01*
X54628630Y53078000D01*
X54489558Y53777163D01*
X54108136Y54348000D01*
X54489558Y54918837D01*
X54628630Y55618000D01*
X54489558Y56317163D01*
X54108136Y56888000D01*
X54489558Y57458837D01*
X54628630Y58158000D01*
X54489558Y58857163D01*
X54108136Y59428000D01*
X54489558Y59998837D01*
X54628630Y60698000D01*
X54489558Y61397163D01*
X54108136Y61968000D01*
X54489558Y62538837D01*
X54628630Y63238000D01*
X54489558Y63937163D01*
X54108136Y64508000D01*
X54489558Y65078837D01*
X54628630Y65778000D01*
X54489558Y66477163D01*
X54108136Y67048000D01*
X54489558Y67618837D01*
X54628630Y68318000D01*
X54489558Y69017163D01*
X54108136Y69588000D01*
X54489558Y70158837D01*
X54628630Y70858000D01*
X54489558Y71557163D01*
X54108136Y72128000D01*
X54489558Y72698837D01*
X54628630Y73398000D01*
X54489558Y74097163D01*
X54108136Y74668000D01*
X54489558Y75238837D01*
X54628630Y75938000D01*
X54489558Y76637163D01*
X54093514Y77229884D01*
X53500793Y77625928D01*
X52801630Y77765000D01*
X51914370Y77765000D01*
X51215207Y77625928D01*
X50824701Y77365000D01*
X49883082Y77365000D01*
X52091083Y79573000D01*
X56408918Y79573000D01*
X58573000Y77408917D01*
X58573000Y61750000D01*
X58643184Y61397163D01*
X58681624Y61203911D01*
X58990959Y60740959D01*
X63990365Y55741552D01*
X64190614Y55540953D01*
X64714907Y55323248D01*
X65282603Y55322752D01*
X65807275Y55539543D01*
X66209047Y55940614D01*
X66426752Y56464907D01*
X66427248Y57032603D01*
X66210457Y57557275D01*
X65809386Y57959047D01*
X65808787Y57959296D01*
X61427000Y62341082D01*
X61427000Y78000000D01*
X61318376Y78546089D01*
X61318376Y78546090D01*
X61009041Y79009042D01*
X58259043Y81759039D01*
X58259041Y81759042D01*
X58009041Y82009041D01*
X57546089Y82318376D01*
X57000000Y82427000D01*
X56495078Y82427000D01*
X71201079Y97133000D01*
X86202418Y97133000D01*
X86407306Y96927754D01*
G36*
X89011997Y55219921D02*
X91740958Y52490959D01*
X92203910Y52181624D01*
X92294512Y52163602D01*
X92750000Y52073000D01*
X94262418Y52073000D01*
X94467306Y51867754D01*
X95175116Y51573845D01*
X95941521Y51573176D01*
X96498000Y51803109D01*
X96498000Y31696481D01*
X95944884Y31926155D01*
X95178479Y31926824D01*
X94470157Y31634151D01*
X94262644Y31427000D01*
X93341083Y31427000D01*
X91669742Y33098341D01*
X91676665Y33115014D01*
X91677334Y33881622D01*
X91384584Y34590132D01*
X91177000Y34798078D01*
X91177000Y38701697D01*
X91382678Y38907017D01*
X91676665Y39615014D01*
X91677334Y40381622D01*
X91384584Y41090132D01*
X91177000Y41298078D01*
X91177000Y42484293D01*
X91213226Y42520456D01*
X91476700Y43154971D01*
X91477299Y43842014D01*
X91214933Y44476989D01*
X91177000Y44514988D01*
X91177000Y46748755D01*
X91177248Y47032603D01*
X90960457Y47557275D01*
X90559386Y47959047D01*
X90035093Y48176752D01*
X89467397Y48177248D01*
X88942725Y47960457D01*
X88677000Y47695196D01*
X88677000Y51720057D01*
X89029843Y51865849D01*
X89572246Y52407306D01*
X89866155Y53115116D01*
X89866824Y53881521D01*
X89574151Y54589843D01*
X89032694Y55132246D01*
X88677000Y55279943D01*
X88677000Y55359024D01*
X89011997Y55219921D01*
X89011997Y55219921D01*
G37*
X89011997Y55219921D02*
X91740958Y52490959D01*
X92203910Y52181624D01*
X92294512Y52163602D01*
X92750000Y52073000D01*
X94262418Y52073000D01*
X94467306Y51867754D01*
X95175116Y51573845D01*
X95941521Y51573176D01*
X96498000Y51803109D01*
X96498000Y31696481D01*
X95944884Y31926155D01*
X95178479Y31926824D01*
X94470157Y31634151D01*
X94262644Y31427000D01*
X93341083Y31427000D01*
X91669742Y33098341D01*
X91676665Y33115014D01*
X91677334Y33881622D01*
X91384584Y34590132D01*
X91177000Y34798078D01*
X91177000Y38701697D01*
X91382678Y38907017D01*
X91676665Y39615014D01*
X91677334Y40381622D01*
X91384584Y41090132D01*
X91177000Y41298078D01*
X91177000Y42484293D01*
X91213226Y42520456D01*
X91476700Y43154971D01*
X91477299Y43842014D01*
X91214933Y44476989D01*
X91177000Y44514988D01*
X91177000Y46748755D01*
X91177248Y47032603D01*
X90960457Y47557275D01*
X90559386Y47959047D01*
X90035093Y48176752D01*
X89467397Y48177248D01*
X88942725Y47960457D01*
X88677000Y47695196D01*
X88677000Y51720057D01*
X89029843Y51865849D01*
X89572246Y52407306D01*
X89866155Y53115116D01*
X89866824Y53881521D01*
X89574151Y54589843D01*
X89032694Y55132246D01*
X88677000Y55279943D01*
X88677000Y55359024D01*
X89011997Y55219921D01*
G36*
X30539543Y61692725D02*
X30940614Y61290953D01*
X31464907Y61073248D01*
X32032603Y61072752D01*
X32144806Y61119113D01*
X32081330Y60800000D01*
X32212790Y60139106D01*
X32514878Y59687000D01*
X31510000Y59687000D01*
X31459908Y59677036D01*
X31217397Y59677248D01*
X30991290Y59583822D01*
X30966178Y59578827D01*
X30963911Y59578376D01*
X30940903Y59563002D01*
X30692725Y59460457D01*
X30501006Y59269072D01*
X30500959Y59269041D01*
X30492126Y59260208D01*
X30290953Y59059386D01*
X30073248Y58535093D01*
X30072752Y57967397D01*
X30289543Y57442725D01*
X30690614Y57040953D01*
X31214907Y56823248D01*
X31782603Y56822752D01*
X31807405Y56833000D01*
X32895198Y56833000D01*
X33147436Y56664460D01*
X33808330Y56533000D01*
X34691670Y56533000D01*
X35352564Y56664460D01*
X35912843Y57038827D01*
X36145269Y57386677D01*
X36159420Y57315540D01*
X36181624Y57203911D01*
X36490959Y56740959D01*
X37823000Y55408917D01*
X37823000Y49195409D01*
X37809386Y49209047D01*
X37285093Y49426752D01*
X36717397Y49427248D01*
X36716797Y49427000D01*
X35918304Y49427000D01*
X36287210Y49979106D01*
X36418670Y50640000D01*
X36287210Y51300894D01*
X35912843Y51861173D01*
X35839768Y51910000D01*
X35912843Y51958827D01*
X36287210Y52519106D01*
X36418670Y53180000D01*
X36287210Y53840894D01*
X35912843Y54401173D01*
X35352564Y54775540D01*
X34691670Y54907000D01*
X33808330Y54907000D01*
X33147436Y54775540D01*
X32895198Y54607000D01*
X29192744Y54607000D01*
X29177000Y54603868D01*
X29177000Y60908918D01*
X30370331Y62102248D01*
X30539543Y61692725D01*
X30539543Y61692725D01*
G37*
X30539543Y61692725D02*
X30940614Y61290953D01*
X31464907Y61073248D01*
X32032603Y61072752D01*
X32144806Y61119113D01*
X32081330Y60800000D01*
X32212790Y60139106D01*
X32514878Y59687000D01*
X31510000Y59687000D01*
X31459908Y59677036D01*
X31217397Y59677248D01*
X30991290Y59583822D01*
X30966178Y59578827D01*
X30963911Y59578376D01*
X30940903Y59563002D01*
X30692725Y59460457D01*
X30501006Y59269072D01*
X30500959Y59269041D01*
X30492126Y59260208D01*
X30290953Y59059386D01*
X30073248Y58535093D01*
X30072752Y57967397D01*
X30289543Y57442725D01*
X30690614Y57040953D01*
X31214907Y56823248D01*
X31782603Y56822752D01*
X31807405Y56833000D01*
X32895198Y56833000D01*
X33147436Y56664460D01*
X33808330Y56533000D01*
X34691670Y56533000D01*
X35352564Y56664460D01*
X35912843Y57038827D01*
X36145269Y57386677D01*
X36159420Y57315540D01*
X36181624Y57203911D01*
X36490959Y56740959D01*
X37823000Y55408917D01*
X37823000Y49195409D01*
X37809386Y49209047D01*
X37285093Y49426752D01*
X36717397Y49427248D01*
X36716797Y49427000D01*
X35918304Y49427000D01*
X36287210Y49979106D01*
X36418670Y50640000D01*
X36287210Y51300894D01*
X35912843Y51861173D01*
X35839768Y51910000D01*
X35912843Y51958827D01*
X36287210Y52519106D01*
X36418670Y53180000D01*
X36287210Y53840894D01*
X35912843Y54401173D01*
X35352564Y54775540D01*
X34691670Y54907000D01*
X33808330Y54907000D01*
X33147436Y54775540D01*
X32895198Y54607000D01*
X29192744Y54607000D01*
X29177000Y54603868D01*
X29177000Y60908918D01*
X30370331Y62102248D01*
X30539543Y61692725D01*
G36*
X83592790Y143700894D02*
X83461330Y143040000D01*
X83592790Y142379106D01*
X83894878Y141927000D01*
X81500000Y141927000D01*
X81044512Y141836398D01*
X80953910Y141818376D01*
X80490958Y141509041D01*
X70408918Y131427000D01*
X66857582Y131427000D01*
X66652694Y131632246D01*
X65944884Y131926155D01*
X65178479Y131926824D01*
X64470157Y131634151D01*
X63927754Y131092694D01*
X63633845Y130384884D01*
X63633176Y129618479D01*
X63925849Y128910157D01*
X64467306Y128367754D01*
X65175116Y128073845D01*
X65941521Y128073176D01*
X66649843Y128365849D01*
X66857356Y128573000D01*
X71000000Y128573000D01*
X71546089Y128681624D01*
X72009041Y128990959D01*
X82091083Y139073000D01*
X84275198Y139073000D01*
X84527436Y138904460D01*
X85186890Y138773286D01*
X84850157Y138634151D01*
X84307754Y138092694D01*
X84013845Y137384884D01*
X84013589Y137091672D01*
X82990959Y136069041D01*
X82681624Y135606089D01*
X82573000Y135060000D01*
X82573000Y118841082D01*
X48990961Y85259043D01*
X48990958Y85259041D01*
X48432457Y84700540D01*
X48214933Y85226989D01*
X48173277Y85268718D01*
X48068376Y85796089D01*
X47759041Y86259041D01*
X41259041Y92759041D01*
X40796089Y93068376D01*
X40250000Y93177000D01*
X39904849Y93177000D01*
X39767721Y93270696D01*
X39400000Y93345161D01*
X37600000Y93345161D01*
X37256474Y93280522D01*
X36940967Y93077499D01*
X36729304Y92767721D01*
X36654839Y92400000D01*
X36654839Y91177000D01*
X36487256Y91177000D01*
X36031768Y91086398D01*
X35941166Y91068376D01*
X35478214Y90759041D01*
X27740959Y83021785D01*
X27431624Y82558833D01*
X27323000Y82012744D01*
X27323000Y70750000D01*
X27410142Y70311910D01*
X27431624Y70203911D01*
X27740959Y69740959D01*
X30070959Y67410958D01*
X30533911Y67101624D01*
X31080000Y66993000D01*
X31276543Y66993000D01*
X31120958Y66889041D01*
X26740959Y62509041D01*
X26431624Y62046089D01*
X26323000Y61500000D01*
X26323000Y54591083D01*
X25118918Y53387000D01*
X25105122Y53387000D01*
X25407210Y53839106D01*
X25538670Y54500000D01*
X25407210Y55160894D01*
X25032843Y55721173D01*
X24472564Y56095540D01*
X23811670Y56227000D01*
X22928330Y56227000D01*
X22267436Y56095540D01*
X21707157Y55721173D01*
X21332790Y55160894D01*
X21201330Y54500000D01*
X21332790Y53839106D01*
X21673020Y53329916D01*
X21413911Y53278376D01*
X20950959Y52969041D01*
X17832935Y49851017D01*
X17787210Y50080894D01*
X17412843Y50641173D01*
X17339768Y50690000D01*
X17412843Y50738827D01*
X17787210Y51299106D01*
X17918670Y51960000D01*
X17787210Y52620894D01*
X17545976Y52981925D01*
X17609033Y53022501D01*
X17820696Y53332279D01*
X17895161Y53700000D01*
X17895161Y54627079D01*
X22759041Y59490958D01*
X23068376Y59953910D01*
X23089286Y60059033D01*
X23177000Y60500000D01*
X23177000Y75908918D01*
X26509041Y79240959D01*
X26818376Y79703911D01*
X26927000Y80250000D01*
X26927000Y91519358D01*
X29322579Y91519358D01*
X29691290Y90627011D01*
X30373420Y89943689D01*
X31265122Y89573422D01*
X32230642Y89572579D01*
X33122989Y89941290D01*
X33806311Y90623420D01*
X34176578Y91515122D01*
X34177359Y92409276D01*
X36341083Y94573000D01*
X42196257Y94573000D01*
X42238714Y94359555D01*
X42710629Y93653286D01*
X43416898Y93181371D01*
X44250000Y93015657D01*
X45083102Y93181371D01*
X45789371Y93653286D01*
X46261286Y94359555D01*
X46427000Y95192657D01*
X46427000Y96807343D01*
X46261286Y97640445D01*
X45789371Y98346714D01*
X45083102Y98818629D01*
X44250000Y98984343D01*
X43416898Y98818629D01*
X42710629Y98346714D01*
X42238714Y97640445D01*
X42196257Y97427000D01*
X35750000Y97427000D01*
X35294512Y97336398D01*
X35203910Y97318376D01*
X34740958Y97009041D01*
X32158562Y94426645D01*
X31269358Y94427421D01*
X30377011Y94058710D01*
X29693689Y93376580D01*
X29323422Y92484878D01*
X29322579Y91519358D01*
X26927000Y91519358D01*
X26927000Y93158918D01*
X33531082Y99763000D01*
X35952418Y99763000D01*
X36157306Y99557754D01*
X36865116Y99263845D01*
X37631521Y99263176D01*
X38339843Y99555849D01*
X38882246Y100097306D01*
X39176155Y100805116D01*
X39176824Y101571521D01*
X38884151Y102279843D01*
X38591505Y102573000D01*
X38750000Y102573000D01*
X39678773Y102757744D01*
X40466148Y103283852D01*
X46579134Y109396838D01*
X49930579Y109396838D01*
X50299290Y108504491D01*
X50981420Y107821169D01*
X51873122Y107450902D01*
X52838642Y107450059D01*
X53730989Y107818770D01*
X54414311Y108500900D01*
X54784578Y109392602D01*
X54785421Y110358122D01*
X54416710Y111250469D01*
X53734580Y111933791D01*
X52842878Y112304058D01*
X51877358Y112304901D01*
X50985011Y111936190D01*
X50301689Y111254060D01*
X49931422Y110362358D01*
X49930579Y109396838D01*
X46579134Y109396838D01*
X52255296Y115073000D01*
X70750000Y115073000D01*
X71678773Y115257744D01*
X72466148Y115783852D01*
X77809181Y121126885D01*
X78083102Y121181371D01*
X78789371Y121653286D01*
X79261286Y122359555D01*
X79364947Y122880696D01*
X79492256Y123071227D01*
X79676999Y124000000D01*
X79492256Y124928772D01*
X79364947Y125119303D01*
X79261286Y125640445D01*
X78789371Y126346714D01*
X78083102Y126818629D01*
X77250000Y126984343D01*
X76416898Y126818629D01*
X75710629Y126346714D01*
X75238714Y125640445D01*
X75184228Y125366524D01*
X69802028Y119984324D01*
X69663294Y119927000D01*
X51250000Y119927000D01*
X50321227Y119742256D01*
X49686847Y119318376D01*
X49533852Y119216148D01*
X39176534Y108858830D01*
X39176824Y109191521D01*
X38884151Y109899843D01*
X38677000Y110107356D01*
X38677000Y111908918D01*
X42594767Y115826685D01*
X42710629Y115653286D01*
X43416898Y115181371D01*
X44250000Y115015657D01*
X45083102Y115181371D01*
X45789371Y115653286D01*
X46261286Y116359555D01*
X46427000Y117192657D01*
X46427000Y118807343D01*
X46261286Y119640445D01*
X45789371Y120346714D01*
X45083102Y120818629D01*
X44250000Y120984343D01*
X43416898Y120818629D01*
X42710629Y120346714D01*
X42238714Y119640445D01*
X42170166Y119295828D01*
X41740959Y119009042D01*
X36242125Y113510207D01*
X36040953Y113309386D01*
X35823248Y112785093D01*
X35822752Y112217397D01*
X35823000Y112216797D01*
X35823000Y110107582D01*
X35617754Y109902694D01*
X35323845Y109194884D01*
X35323176Y108428479D01*
X35615849Y107720157D01*
X35908495Y107427000D01*
X18750000Y107427000D01*
X17821227Y107242256D01*
X17033852Y106716148D01*
X4034777Y93717073D01*
X3693689Y93376580D01*
X3677000Y93336388D01*
X3677000Y138817918D01*
X4033852Y138283852D01*
X10283852Y132033852D01*
X11071227Y131507744D01*
X12000000Y131323000D01*
X40000000Y131323000D01*
X40928773Y131507744D01*
X41716148Y132033852D01*
X43457107Y133774811D01*
X44823000Y132408917D01*
X44823000Y128500000D01*
X44865995Y128283852D01*
X44931624Y127953911D01*
X45240959Y127490959D01*
X48740958Y123990959D01*
X49203910Y123681624D01*
X49294512Y123663602D01*
X49750000Y123573000D01*
X57500000Y123573000D01*
X58046089Y123681624D01*
X58509041Y123990959D01*
X62009041Y127490958D01*
X62318376Y127953910D01*
X62384005Y128283852D01*
X62427000Y128500000D01*
X62427000Y129908918D01*
X66091082Y133573000D01*
X71750000Y133573000D01*
X72296089Y133681624D01*
X72759041Y133990959D01*
X82921083Y144153000D01*
X83894878Y144153000D01*
X83592790Y143700894D01*
X83592790Y143700894D01*
G37*
X83592790Y143700894D02*
X83461330Y143040000D01*
X83592790Y142379106D01*
X83894878Y141927000D01*
X81500000Y141927000D01*
X81044512Y141836398D01*
X80953910Y141818376D01*
X80490958Y141509041D01*
X70408918Y131427000D01*
X66857582Y131427000D01*
X66652694Y131632246D01*
X65944884Y131926155D01*
X65178479Y131926824D01*
X64470157Y131634151D01*
X63927754Y131092694D01*
X63633845Y130384884D01*
X63633176Y129618479D01*
X63925849Y128910157D01*
X64467306Y128367754D01*
X65175116Y128073845D01*
X65941521Y128073176D01*
X66649843Y128365849D01*
X66857356Y128573000D01*
X71000000Y128573000D01*
X71546089Y128681624D01*
X72009041Y128990959D01*
X82091083Y139073000D01*
X84275198Y139073000D01*
X84527436Y138904460D01*
X85186890Y138773286D01*
X84850157Y138634151D01*
X84307754Y138092694D01*
X84013845Y137384884D01*
X84013589Y137091672D01*
X82990959Y136069041D01*
X82681624Y135606089D01*
X82573000Y135060000D01*
X82573000Y118841082D01*
X48990961Y85259043D01*
X48990958Y85259041D01*
X48432457Y84700540D01*
X48214933Y85226989D01*
X48173277Y85268718D01*
X48068376Y85796089D01*
X47759041Y86259041D01*
X41259041Y92759041D01*
X40796089Y93068376D01*
X40250000Y93177000D01*
X39904849Y93177000D01*
X39767721Y93270696D01*
X39400000Y93345161D01*
X37600000Y93345161D01*
X37256474Y93280522D01*
X36940967Y93077499D01*
X36729304Y92767721D01*
X36654839Y92400000D01*
X36654839Y91177000D01*
X36487256Y91177000D01*
X36031768Y91086398D01*
X35941166Y91068376D01*
X35478214Y90759041D01*
X27740959Y83021785D01*
X27431624Y82558833D01*
X27323000Y82012744D01*
X27323000Y70750000D01*
X27410142Y70311910D01*
X27431624Y70203911D01*
X27740959Y69740959D01*
X30070959Y67410958D01*
X30533911Y67101624D01*
X31080000Y66993000D01*
X31276543Y66993000D01*
X31120958Y66889041D01*
X26740959Y62509041D01*
X26431624Y62046089D01*
X26323000Y61500000D01*
X26323000Y54591083D01*
X25118918Y53387000D01*
X25105122Y53387000D01*
X25407210Y53839106D01*
X25538670Y54500000D01*
X25407210Y55160894D01*
X25032843Y55721173D01*
X24472564Y56095540D01*
X23811670Y56227000D01*
X22928330Y56227000D01*
X22267436Y56095540D01*
X21707157Y55721173D01*
X21332790Y55160894D01*
X21201330Y54500000D01*
X21332790Y53839106D01*
X21673020Y53329916D01*
X21413911Y53278376D01*
X20950959Y52969041D01*
X17832935Y49851017D01*
X17787210Y50080894D01*
X17412843Y50641173D01*
X17339768Y50690000D01*
X17412843Y50738827D01*
X17787210Y51299106D01*
X17918670Y51960000D01*
X17787210Y52620894D01*
X17545976Y52981925D01*
X17609033Y53022501D01*
X17820696Y53332279D01*
X17895161Y53700000D01*
X17895161Y54627079D01*
X22759041Y59490958D01*
X23068376Y59953910D01*
X23089286Y60059033D01*
X23177000Y60500000D01*
X23177000Y75908918D01*
X26509041Y79240959D01*
X26818376Y79703911D01*
X26927000Y80250000D01*
X26927000Y91519358D01*
X29322579Y91519358D01*
X29691290Y90627011D01*
X30373420Y89943689D01*
X31265122Y89573422D01*
X32230642Y89572579D01*
X33122989Y89941290D01*
X33806311Y90623420D01*
X34176578Y91515122D01*
X34177359Y92409276D01*
X36341083Y94573000D01*
X42196257Y94573000D01*
X42238714Y94359555D01*
X42710629Y93653286D01*
X43416898Y93181371D01*
X44250000Y93015657D01*
X45083102Y93181371D01*
X45789371Y93653286D01*
X46261286Y94359555D01*
X46427000Y95192657D01*
X46427000Y96807343D01*
X46261286Y97640445D01*
X45789371Y98346714D01*
X45083102Y98818629D01*
X44250000Y98984343D01*
X43416898Y98818629D01*
X42710629Y98346714D01*
X42238714Y97640445D01*
X42196257Y97427000D01*
X35750000Y97427000D01*
X35294512Y97336398D01*
X35203910Y97318376D01*
X34740958Y97009041D01*
X32158562Y94426645D01*
X31269358Y94427421D01*
X30377011Y94058710D01*
X29693689Y93376580D01*
X29323422Y92484878D01*
X29322579Y91519358D01*
X26927000Y91519358D01*
X26927000Y93158918D01*
X33531082Y99763000D01*
X35952418Y99763000D01*
X36157306Y99557754D01*
X36865116Y99263845D01*
X37631521Y99263176D01*
X38339843Y99555849D01*
X38882246Y100097306D01*
X39176155Y100805116D01*
X39176824Y101571521D01*
X38884151Y102279843D01*
X38591505Y102573000D01*
X38750000Y102573000D01*
X39678773Y102757744D01*
X40466148Y103283852D01*
X46579134Y109396838D01*
X49930579Y109396838D01*
X50299290Y108504491D01*
X50981420Y107821169D01*
X51873122Y107450902D01*
X52838642Y107450059D01*
X53730989Y107818770D01*
X54414311Y108500900D01*
X54784578Y109392602D01*
X54785421Y110358122D01*
X54416710Y111250469D01*
X53734580Y111933791D01*
X52842878Y112304058D01*
X51877358Y112304901D01*
X50985011Y111936190D01*
X50301689Y111254060D01*
X49931422Y110362358D01*
X49930579Y109396838D01*
X46579134Y109396838D01*
X52255296Y115073000D01*
X70750000Y115073000D01*
X71678773Y115257744D01*
X72466148Y115783852D01*
X77809181Y121126885D01*
X78083102Y121181371D01*
X78789371Y121653286D01*
X79261286Y122359555D01*
X79364947Y122880696D01*
X79492256Y123071227D01*
X79676999Y124000000D01*
X79492256Y124928772D01*
X79364947Y125119303D01*
X79261286Y125640445D01*
X78789371Y126346714D01*
X78083102Y126818629D01*
X77250000Y126984343D01*
X76416898Y126818629D01*
X75710629Y126346714D01*
X75238714Y125640445D01*
X75184228Y125366524D01*
X69802028Y119984324D01*
X69663294Y119927000D01*
X51250000Y119927000D01*
X50321227Y119742256D01*
X49686847Y119318376D01*
X49533852Y119216148D01*
X39176534Y108858830D01*
X39176824Y109191521D01*
X38884151Y109899843D01*
X38677000Y110107356D01*
X38677000Y111908918D01*
X42594767Y115826685D01*
X42710629Y115653286D01*
X43416898Y115181371D01*
X44250000Y115015657D01*
X45083102Y115181371D01*
X45789371Y115653286D01*
X46261286Y116359555D01*
X46427000Y117192657D01*
X46427000Y118807343D01*
X46261286Y119640445D01*
X45789371Y120346714D01*
X45083102Y120818629D01*
X44250000Y120984343D01*
X43416898Y120818629D01*
X42710629Y120346714D01*
X42238714Y119640445D01*
X42170166Y119295828D01*
X41740959Y119009042D01*
X36242125Y113510207D01*
X36040953Y113309386D01*
X35823248Y112785093D01*
X35822752Y112217397D01*
X35823000Y112216797D01*
X35823000Y110107582D01*
X35617754Y109902694D01*
X35323845Y109194884D01*
X35323176Y108428479D01*
X35615849Y107720157D01*
X35908495Y107427000D01*
X18750000Y107427000D01*
X17821227Y107242256D01*
X17033852Y106716148D01*
X4034777Y93717073D01*
X3693689Y93376580D01*
X3677000Y93336388D01*
X3677000Y138817918D01*
X4033852Y138283852D01*
X10283852Y132033852D01*
X11071227Y131507744D01*
X12000000Y131323000D01*
X40000000Y131323000D01*
X40928773Y131507744D01*
X41716148Y132033852D01*
X43457107Y133774811D01*
X44823000Y132408917D01*
X44823000Y128500000D01*
X44865995Y128283852D01*
X44931624Y127953911D01*
X45240959Y127490959D01*
X48740958Y123990959D01*
X49203910Y123681624D01*
X49294512Y123663602D01*
X49750000Y123573000D01*
X57500000Y123573000D01*
X58046089Y123681624D01*
X58509041Y123990959D01*
X62009041Y127490958D01*
X62318376Y127953910D01*
X62384005Y128283852D01*
X62427000Y128500000D01*
X62427000Y129908918D01*
X66091082Y133573000D01*
X71750000Y133573000D01*
X72296089Y133681624D01*
X72759041Y133990959D01*
X82921083Y144153000D01*
X83894878Y144153000D01*
X83592790Y143700894D01*
G36*
X94467306Y76867754D02*
X95175116Y76573845D01*
X95941521Y76573176D01*
X96498000Y76803109D01*
X96498000Y55196481D01*
X95944884Y55426155D01*
X95178479Y55426824D01*
X94470157Y55134151D01*
X94262644Y54927000D01*
X93341083Y54927000D01*
X91669742Y56598341D01*
X91676665Y56615014D01*
X91677334Y57381622D01*
X91384584Y58090132D01*
X91177000Y58298078D01*
X91177000Y62201697D01*
X91382678Y62407017D01*
X91676665Y63115014D01*
X91677334Y63881622D01*
X91384584Y64590132D01*
X91177000Y64798078D01*
X91177000Y65984293D01*
X91213226Y66020456D01*
X91476700Y66654971D01*
X91477299Y67342014D01*
X91214933Y67976989D01*
X91177000Y68014988D01*
X91177000Y70748755D01*
X91177248Y71032603D01*
X90960457Y71557275D01*
X90559386Y71959047D01*
X90035093Y72176752D01*
X89467397Y72177248D01*
X88942725Y71960457D01*
X88677000Y71695196D01*
X88677000Y74305028D01*
X88940614Y74040953D01*
X89464907Y73823248D01*
X90032603Y73822752D01*
X90557275Y74039543D01*
X90959047Y74440614D01*
X90959296Y74441214D01*
X93591082Y77073000D01*
X94262418Y77073000D01*
X94467306Y76867754D01*
X94467306Y76867754D01*
G37*
X94467306Y76867754D02*
X95175116Y76573845D01*
X95941521Y76573176D01*
X96498000Y76803109D01*
X96498000Y55196481D01*
X95944884Y55426155D01*
X95178479Y55426824D01*
X94470157Y55134151D01*
X94262644Y54927000D01*
X93341083Y54927000D01*
X91669742Y56598341D01*
X91676665Y56615014D01*
X91677334Y57381622D01*
X91384584Y58090132D01*
X91177000Y58298078D01*
X91177000Y62201697D01*
X91382678Y62407017D01*
X91676665Y63115014D01*
X91677334Y63881622D01*
X91384584Y64590132D01*
X91177000Y64798078D01*
X91177000Y65984293D01*
X91213226Y66020456D01*
X91476700Y66654971D01*
X91477299Y67342014D01*
X91214933Y67976989D01*
X91177000Y68014988D01*
X91177000Y70748755D01*
X91177248Y71032603D01*
X90960457Y71557275D01*
X90559386Y71959047D01*
X90035093Y72176752D01*
X89467397Y72177248D01*
X88942725Y71960457D01*
X88677000Y71695196D01*
X88677000Y74305028D01*
X88940614Y74040953D01*
X89464907Y73823248D01*
X90032603Y73822752D01*
X90557275Y74039543D01*
X90959047Y74440614D01*
X90959296Y74441214D01*
X93591082Y77073000D01*
X94262418Y77073000D01*
X94467306Y76867754D01*
G36*
X39701330Y60800000D02*
X39832790Y60139106D01*
X40207157Y59578827D01*
X40767436Y59204460D01*
X41428330Y59073000D01*
X42311670Y59073000D01*
X42972564Y59204460D01*
X43072148Y59271000D01*
X45460918Y59271000D01*
X46222998Y58508919D01*
X46222998Y56045084D01*
X45539041Y56729041D01*
X45076089Y57038376D01*
X45070222Y57039543D01*
X44530000Y57147000D01*
X43224802Y57147000D01*
X42972564Y57315540D01*
X42311670Y57447000D01*
X41428330Y57447000D01*
X40767436Y57315540D01*
X40274378Y56986089D01*
X40259042Y57009041D01*
X38927000Y58341082D01*
X38927000Y60158918D01*
X39734416Y60966333D01*
X39701330Y60800000D01*
X39701330Y60800000D01*
G37*
X39701330Y60800000D02*
X39832790Y60139106D01*
X40207157Y59578827D01*
X40767436Y59204460D01*
X41428330Y59073000D01*
X42311670Y59073000D01*
X42972564Y59204460D01*
X43072148Y59271000D01*
X45460918Y59271000D01*
X46222998Y58508919D01*
X46222998Y56045084D01*
X45539041Y56729041D01*
X45076089Y57038376D01*
X45070222Y57039543D01*
X44530000Y57147000D01*
X43224802Y57147000D01*
X42972564Y57315540D01*
X42311670Y57447000D01*
X41428330Y57447000D01*
X40767436Y57315540D01*
X40274378Y56986089D01*
X40259042Y57009041D01*
X38927000Y58341082D01*
X38927000Y60158918D01*
X39734416Y60966333D01*
X39701330Y60800000D01*
G36*
X36757249Y83146508D02*
X37099100Y82634893D01*
X37610715Y82293042D01*
X38214207Y82173000D01*
X38785793Y82173000D01*
X39389285Y82293042D01*
X39434120Y82323000D01*
X40054917Y82323000D01*
X36740960Y79009042D01*
X36740959Y79009041D01*
X36431624Y78546089D01*
X36323000Y78000000D01*
X36323000Y74655216D01*
X36127499Y74959033D01*
X35817721Y75170696D01*
X35677000Y75199193D01*
X35677000Y75498755D01*
X35677248Y75782603D01*
X35460457Y76307275D01*
X35059386Y76709047D01*
X34535093Y76926752D01*
X33967397Y76927248D01*
X33442725Y76710457D01*
X33040953Y76309386D01*
X32823248Y75785093D01*
X32822752Y75217397D01*
X32823000Y75216797D01*
X32823000Y75202448D01*
X32706474Y75180522D01*
X32390967Y74977499D01*
X32179304Y74667721D01*
X32104839Y74300000D01*
X32104839Y72700000D01*
X32163734Y72387000D01*
X31927000Y72387000D01*
X31927000Y79692797D01*
X32214907Y79573248D01*
X32782603Y79572752D01*
X33307275Y79789543D01*
X33709047Y80190614D01*
X33709296Y80191214D01*
X36741876Y83223793D01*
X36757249Y83146508D01*
X36757249Y83146508D01*
G37*
X36757249Y83146508D02*
X37099100Y82634893D01*
X37610715Y82293042D01*
X38214207Y82173000D01*
X38785793Y82173000D01*
X39389285Y82293042D01*
X39434120Y82323000D01*
X40054917Y82323000D01*
X36740960Y79009042D01*
X36740959Y79009041D01*
X36431624Y78546089D01*
X36323000Y78000000D01*
X36323000Y74655216D01*
X36127499Y74959033D01*
X35817721Y75170696D01*
X35677000Y75199193D01*
X35677000Y75498755D01*
X35677248Y75782603D01*
X35460457Y76307275D01*
X35059386Y76709047D01*
X34535093Y76926752D01*
X33967397Y76927248D01*
X33442725Y76710457D01*
X33040953Y76309386D01*
X32823248Y75785093D01*
X32822752Y75217397D01*
X32823000Y75216797D01*
X32823000Y75202448D01*
X32706474Y75180522D01*
X32390967Y74977499D01*
X32179304Y74667721D01*
X32104839Y74300000D01*
X32104839Y72700000D01*
X32163734Y72387000D01*
X31927000Y72387000D01*
X31927000Y79692797D01*
X32214907Y79573248D01*
X32782603Y79572752D01*
X33307275Y79789543D01*
X33709047Y80190614D01*
X33709296Y80191214D01*
X36741876Y83223793D01*
X36757249Y83146508D01*
G36*
X96498000Y80196481D02*
X95944884Y80426155D01*
X95178479Y80426824D01*
X94470157Y80134151D01*
X94262644Y79927000D01*
X93841083Y79927000D01*
X91677080Y82091002D01*
X91677334Y82381622D01*
X91384584Y83090132D01*
X91177000Y83298078D01*
X91177000Y87201697D01*
X91382678Y87407017D01*
X91676665Y88115014D01*
X91677334Y88881622D01*
X91384584Y89590132D01*
X91177000Y89798078D01*
X91177000Y90514412D01*
X91226989Y90535067D01*
X91713226Y91020456D01*
X91976700Y91654971D01*
X91977299Y92342014D01*
X91714933Y92976989D01*
X91229544Y93463226D01*
X90595029Y93726700D01*
X89907986Y93727299D01*
X89273011Y93464933D01*
X88927000Y93119525D01*
X88927000Y93408918D01*
X93009041Y97490959D01*
X93318376Y97953911D01*
X93403727Y98383001D01*
X93427000Y98500000D01*
X93427000Y117750000D01*
X93318376Y118296089D01*
X93009041Y118759041D01*
X89677000Y122091082D01*
X89677000Y124178182D01*
X90422684Y124178182D01*
X90700242Y123506440D01*
X91213736Y122992048D01*
X91884993Y122713318D01*
X92611818Y122712684D01*
X93283560Y122990242D01*
X93797952Y123503736D01*
X94076682Y124174993D01*
X94076834Y124348751D01*
X95069042Y125340959D01*
X95378376Y125803911D01*
X95487000Y126350000D01*
X95487000Y128702418D01*
X95692246Y128907306D01*
X95986155Y129615116D01*
X95986824Y130381521D01*
X95694151Y131089843D01*
X95152694Y131632246D01*
X94444884Y131926155D01*
X93678479Y131926824D01*
X92970157Y131634151D01*
X92427754Y131092694D01*
X92133845Y130384884D01*
X92133176Y129618479D01*
X92425849Y128910157D01*
X92633000Y128702644D01*
X92633000Y126941083D01*
X92059084Y126367167D01*
X91888182Y126367316D01*
X91216440Y126089758D01*
X90702048Y125576264D01*
X90423318Y124905007D01*
X90422684Y124178182D01*
X89677000Y124178182D01*
X89677000Y127190000D01*
X89651900Y127316186D01*
X89654063Y127444826D01*
X89598111Y127586603D01*
X89568376Y127736089D01*
X89496899Y127843062D01*
X89449668Y127962740D01*
X88366181Y129644839D01*
X88366824Y130381521D01*
X88074151Y131089843D01*
X87532694Y131632246D01*
X86824884Y131926155D01*
X86058479Y131926824D01*
X85427000Y131665902D01*
X85427000Y134468918D01*
X86031512Y135073429D01*
X86321521Y135073176D01*
X87029843Y135365849D01*
X87572246Y135907306D01*
X87866155Y136615116D01*
X87866824Y137381521D01*
X87574151Y138089843D01*
X87032694Y138632246D01*
X86492250Y138856659D01*
X86732564Y138904460D01*
X87292843Y139278827D01*
X87667210Y139839106D01*
X87798670Y140500000D01*
X87667210Y141160894D01*
X87574263Y141300000D01*
X91104839Y141300000D01*
X91104839Y139700000D01*
X91169478Y139356474D01*
X91372501Y139040967D01*
X91682279Y138829304D01*
X92050000Y138754839D01*
X92133000Y138754839D01*
X92133000Y138297582D01*
X91927754Y138092694D01*
X91633845Y137384884D01*
X91633176Y136618479D01*
X91925849Y135910157D01*
X92467306Y135367754D01*
X93175116Y135073845D01*
X93941521Y135073176D01*
X94649843Y135365849D01*
X95192246Y135907306D01*
X95486155Y136615116D01*
X95486824Y137381521D01*
X95194151Y138089843D01*
X94987000Y138297356D01*
X94987000Y138943975D01*
X95109033Y139022501D01*
X95320696Y139332279D01*
X95395161Y139700000D01*
X95395161Y141300000D01*
X95330522Y141643526D01*
X95127499Y141959033D01*
X94817721Y142170696D01*
X94450000Y142245161D01*
X92050000Y142245161D01*
X91706474Y142180522D01*
X91390967Y141977499D01*
X91179304Y141667721D01*
X91104839Y141300000D01*
X87574263Y141300000D01*
X87292843Y141721173D01*
X87219768Y141770000D01*
X87292843Y141818827D01*
X87667210Y142379106D01*
X87798670Y143040000D01*
X87667210Y143700894D01*
X87292843Y144261173D01*
X87219768Y144310000D01*
X87292843Y144358827D01*
X87667210Y144919106D01*
X87798670Y145580000D01*
X91081330Y145580000D01*
X91212790Y144919106D01*
X91587157Y144358827D01*
X92147436Y143984460D01*
X92808330Y143853000D01*
X93691670Y143853000D01*
X94352564Y143984460D01*
X94912843Y144358827D01*
X95287210Y144919106D01*
X95418670Y145580000D01*
X95287210Y146240894D01*
X94912843Y146801173D01*
X94352564Y147175540D01*
X93691670Y147307000D01*
X92808330Y147307000D01*
X92147436Y147175540D01*
X91587157Y146801173D01*
X91212790Y146240894D01*
X91081330Y145580000D01*
X87798670Y145580000D01*
X87667210Y146240894D01*
X87292843Y146801173D01*
X86732564Y147175540D01*
X86071670Y147307000D01*
X85188330Y147307000D01*
X84527436Y147175540D01*
X84275198Y147007000D01*
X82330000Y147007000D01*
X81783911Y146898376D01*
X81783909Y146898375D01*
X81783910Y146898375D01*
X81320958Y146589041D01*
X79303451Y144571534D01*
X79427000Y145192657D01*
X79427000Y146807343D01*
X79261286Y147640445D01*
X78789371Y148346714D01*
X78083102Y148818629D01*
X77250000Y148984343D01*
X76416898Y148818629D01*
X75710629Y148346714D01*
X75430184Y147927000D01*
X70834793Y147927000D01*
X70206580Y148556311D01*
X69314878Y148926578D01*
X68349358Y148927421D01*
X67457011Y148558710D01*
X66773689Y147876580D01*
X66403422Y146984878D01*
X66402579Y146019358D01*
X66771290Y145127011D01*
X67453420Y144443689D01*
X68345122Y144073422D01*
X69310642Y144072579D01*
X70202989Y144441290D01*
X70835803Y145073000D01*
X75096801Y145073000D01*
X75238714Y144359555D01*
X75710629Y143653286D01*
X76416898Y143181371D01*
X77250000Y143015657D01*
X77871123Y143139206D01*
X71158918Y136427000D01*
X65500000Y136427000D01*
X64953911Y136318376D01*
X64490959Y136009041D01*
X59990959Y131509041D01*
X59892746Y131362055D01*
X59656148Y131716148D01*
X58868772Y132242256D01*
X57940000Y132427000D01*
X57011227Y132242256D01*
X56750016Y132067720D01*
X57966148Y133283852D01*
X58492256Y134071227D01*
X58534433Y134283268D01*
X58873420Y133943689D01*
X59765122Y133573422D01*
X60730642Y133572579D01*
X61622989Y133941290D01*
X62306311Y134623420D01*
X62676578Y135515122D01*
X62677421Y136480642D01*
X62677000Y136481661D01*
X62677000Y142000000D01*
X62492256Y142928773D01*
X61966148Y143716148D01*
X59195161Y146487135D01*
X59195161Y148000000D01*
X59130522Y148343526D01*
X58982860Y148573000D01*
X59744704Y148573000D01*
X61304839Y147012865D01*
X61304839Y145000000D01*
X61369478Y144656474D01*
X61572501Y144340967D01*
X61882279Y144129304D01*
X62250000Y144054839D01*
X65250000Y144054839D01*
X65593526Y144119478D01*
X65909033Y144322501D01*
X66120696Y144632279D01*
X66195161Y145000000D01*
X66195161Y148000000D01*
X66130522Y148343526D01*
X66098891Y148392682D01*
X65992256Y148928773D01*
X65466148Y149716148D01*
X62466148Y152716148D01*
X61678773Y153242256D01*
X60750000Y153427000D01*
X44750000Y153427000D01*
X43821227Y153242256D01*
X43033852Y152716148D01*
X40033852Y149716148D01*
X39507744Y148928773D01*
X39323000Y148000000D01*
X39323000Y146603121D01*
X39294662Y146671704D01*
X39293256Y146678773D01*
X39289287Y146684713D01*
X39108522Y147122197D01*
X38771150Y147460158D01*
X38767148Y147466148D01*
X38761210Y147470115D01*
X38426786Y147805124D01*
X37985766Y147988252D01*
X37979773Y147992256D01*
X37972766Y147993650D01*
X37535598Y148175178D01*
X37058065Y148175595D01*
X37051000Y148177000D01*
X37043997Y148175607D01*
X36570635Y148176020D01*
X36129296Y147993662D01*
X36122227Y147992256D01*
X36116287Y147988287D01*
X35678803Y147807522D01*
X35340842Y147470150D01*
X35334852Y147466148D01*
X35330885Y147460210D01*
X34995876Y147125786D01*
X34812748Y146684766D01*
X34808744Y146678773D01*
X34807350Y146671766D01*
X34625822Y146234598D01*
X34625405Y145757065D01*
X34624000Y145750000D01*
X34624000Y141949000D01*
X34808744Y141020227D01*
X35334852Y140232852D01*
X39192704Y136375000D01*
X38994704Y136177000D01*
X13005296Y136177000D01*
X8177000Y141005296D01*
X8177000Y145498455D01*
X8177421Y145980642D01*
X7808710Y146872989D01*
X7126580Y147556311D01*
X6484322Y147823000D01*
X9658918Y147823000D01*
X12323000Y145158917D01*
X12323000Y141750000D01*
X12383776Y141444460D01*
X12431624Y141203911D01*
X12740959Y140740959D01*
X15490958Y137990959D01*
X15953910Y137681624D01*
X16044512Y137663602D01*
X16500000Y137573000D01*
X25250000Y137573000D01*
X25796089Y137681624D01*
X26259041Y137990959D01*
X31341437Y143073355D01*
X32230642Y143072579D01*
X33122989Y143441290D01*
X33806311Y144123420D01*
X34176578Y145015122D01*
X34177421Y145980642D01*
X33808710Y146872989D01*
X33126580Y147556311D01*
X32234878Y147926578D01*
X31269358Y147927421D01*
X30377011Y147558710D01*
X29693689Y146876580D01*
X29323422Y145984878D01*
X29322641Y145090723D01*
X24658918Y140427000D01*
X17091083Y140427000D01*
X15177000Y142341082D01*
X15177000Y145750000D01*
X15068376Y146296089D01*
X15068376Y146296090D01*
X14759041Y146759042D01*
X13921557Y147596526D01*
X15823000Y147596526D01*
X15823000Y143403474D01*
X16045805Y142283360D01*
X16680298Y141333772D01*
X17629886Y140699279D01*
X18750000Y140476474D01*
X19870114Y140699279D01*
X20819702Y141333772D01*
X21454195Y142283360D01*
X21677000Y143403474D01*
X21677000Y147596526D01*
X21454195Y148716640D01*
X20819702Y149666228D01*
X19870114Y150300721D01*
X18750000Y150523526D01*
X17629886Y150300721D01*
X16680298Y149666228D01*
X16045805Y148716640D01*
X15823000Y147596526D01*
X13921557Y147596526D01*
X11259041Y150259041D01*
X10796089Y150568376D01*
X10250000Y150677000D01*
X3750000Y150677000D01*
X3294512Y150586398D01*
X3203910Y150568376D01*
X2740958Y150259041D01*
X1240959Y148759041D01*
X1002000Y148401414D01*
X1002000Y154248000D01*
X96498000Y154248000D01*
X96498000Y80196481D01*
X96498000Y80196481D01*
G37*
X96498000Y80196481D02*
X95944884Y80426155D01*
X95178479Y80426824D01*
X94470157Y80134151D01*
X94262644Y79927000D01*
X93841083Y79927000D01*
X91677080Y82091002D01*
X91677334Y82381622D01*
X91384584Y83090132D01*
X91177000Y83298078D01*
X91177000Y87201697D01*
X91382678Y87407017D01*
X91676665Y88115014D01*
X91677334Y88881622D01*
X91384584Y89590132D01*
X91177000Y89798078D01*
X91177000Y90514412D01*
X91226989Y90535067D01*
X91713226Y91020456D01*
X91976700Y91654971D01*
X91977299Y92342014D01*
X91714933Y92976989D01*
X91229544Y93463226D01*
X90595029Y93726700D01*
X89907986Y93727299D01*
X89273011Y93464933D01*
X88927000Y93119525D01*
X88927000Y93408918D01*
X93009041Y97490959D01*
X93318376Y97953911D01*
X93403727Y98383001D01*
X93427000Y98500000D01*
X93427000Y117750000D01*
X93318376Y118296089D01*
X93009041Y118759041D01*
X89677000Y122091082D01*
X89677000Y124178182D01*
X90422684Y124178182D01*
X90700242Y123506440D01*
X91213736Y122992048D01*
X91884993Y122713318D01*
X92611818Y122712684D01*
X93283560Y122990242D01*
X93797952Y123503736D01*
X94076682Y124174993D01*
X94076834Y124348751D01*
X95069042Y125340959D01*
X95378376Y125803911D01*
X95487000Y126350000D01*
X95487000Y128702418D01*
X95692246Y128907306D01*
X95986155Y129615116D01*
X95986824Y130381521D01*
X95694151Y131089843D01*
X95152694Y131632246D01*
X94444884Y131926155D01*
X93678479Y131926824D01*
X92970157Y131634151D01*
X92427754Y131092694D01*
X92133845Y130384884D01*
X92133176Y129618479D01*
X92425849Y128910157D01*
X92633000Y128702644D01*
X92633000Y126941083D01*
X92059084Y126367167D01*
X91888182Y126367316D01*
X91216440Y126089758D01*
X90702048Y125576264D01*
X90423318Y124905007D01*
X90422684Y124178182D01*
X89677000Y124178182D01*
X89677000Y127190000D01*
X89651900Y127316186D01*
X89654063Y127444826D01*
X89598111Y127586603D01*
X89568376Y127736089D01*
X89496899Y127843062D01*
X89449668Y127962740D01*
X88366181Y129644839D01*
X88366824Y130381521D01*
X88074151Y131089843D01*
X87532694Y131632246D01*
X86824884Y131926155D01*
X86058479Y131926824D01*
X85427000Y131665902D01*
X85427000Y134468918D01*
X86031512Y135073429D01*
X86321521Y135073176D01*
X87029843Y135365849D01*
X87572246Y135907306D01*
X87866155Y136615116D01*
X87866824Y137381521D01*
X87574151Y138089843D01*
X87032694Y138632246D01*
X86492250Y138856659D01*
X86732564Y138904460D01*
X87292843Y139278827D01*
X87667210Y139839106D01*
X87798670Y140500000D01*
X87667210Y141160894D01*
X87574263Y141300000D01*
X91104839Y141300000D01*
X91104839Y139700000D01*
X91169478Y139356474D01*
X91372501Y139040967D01*
X91682279Y138829304D01*
X92050000Y138754839D01*
X92133000Y138754839D01*
X92133000Y138297582D01*
X91927754Y138092694D01*
X91633845Y137384884D01*
X91633176Y136618479D01*
X91925849Y135910157D01*
X92467306Y135367754D01*
X93175116Y135073845D01*
X93941521Y135073176D01*
X94649843Y135365849D01*
X95192246Y135907306D01*
X95486155Y136615116D01*
X95486824Y137381521D01*
X95194151Y138089843D01*
X94987000Y138297356D01*
X94987000Y138943975D01*
X95109033Y139022501D01*
X95320696Y139332279D01*
X95395161Y139700000D01*
X95395161Y141300000D01*
X95330522Y141643526D01*
X95127499Y141959033D01*
X94817721Y142170696D01*
X94450000Y142245161D01*
X92050000Y142245161D01*
X91706474Y142180522D01*
X91390967Y141977499D01*
X91179304Y141667721D01*
X91104839Y141300000D01*
X87574263Y141300000D01*
X87292843Y141721173D01*
X87219768Y141770000D01*
X87292843Y141818827D01*
X87667210Y142379106D01*
X87798670Y143040000D01*
X87667210Y143700894D01*
X87292843Y144261173D01*
X87219768Y144310000D01*
X87292843Y144358827D01*
X87667210Y144919106D01*
X87798670Y145580000D01*
X91081330Y145580000D01*
X91212790Y144919106D01*
X91587157Y144358827D01*
X92147436Y143984460D01*
X92808330Y143853000D01*
X93691670Y143853000D01*
X94352564Y143984460D01*
X94912843Y144358827D01*
X95287210Y144919106D01*
X95418670Y145580000D01*
X95287210Y146240894D01*
X94912843Y146801173D01*
X94352564Y147175540D01*
X93691670Y147307000D01*
X92808330Y147307000D01*
X92147436Y147175540D01*
X91587157Y146801173D01*
X91212790Y146240894D01*
X91081330Y145580000D01*
X87798670Y145580000D01*
X87667210Y146240894D01*
X87292843Y146801173D01*
X86732564Y147175540D01*
X86071670Y147307000D01*
X85188330Y147307000D01*
X84527436Y147175540D01*
X84275198Y147007000D01*
X82330000Y147007000D01*
X81783911Y146898376D01*
X81783909Y146898375D01*
X81783910Y146898375D01*
X81320958Y146589041D01*
X79303451Y144571534D01*
X79427000Y145192657D01*
X79427000Y146807343D01*
X79261286Y147640445D01*
X78789371Y148346714D01*
X78083102Y148818629D01*
X77250000Y148984343D01*
X76416898Y148818629D01*
X75710629Y148346714D01*
X75430184Y147927000D01*
X70834793Y147927000D01*
X70206580Y148556311D01*
X69314878Y148926578D01*
X68349358Y148927421D01*
X67457011Y148558710D01*
X66773689Y147876580D01*
X66403422Y146984878D01*
X66402579Y146019358D01*
X66771290Y145127011D01*
X67453420Y144443689D01*
X68345122Y144073422D01*
X69310642Y144072579D01*
X70202989Y144441290D01*
X70835803Y145073000D01*
X75096801Y145073000D01*
X75238714Y144359555D01*
X75710629Y143653286D01*
X76416898Y143181371D01*
X77250000Y143015657D01*
X77871123Y143139206D01*
X71158918Y136427000D01*
X65500000Y136427000D01*
X64953911Y136318376D01*
X64490959Y136009041D01*
X59990959Y131509041D01*
X59892746Y131362055D01*
X59656148Y131716148D01*
X58868772Y132242256D01*
X57940000Y132427000D01*
X57011227Y132242256D01*
X56750016Y132067720D01*
X57966148Y133283852D01*
X58492256Y134071227D01*
X58534433Y134283268D01*
X58873420Y133943689D01*
X59765122Y133573422D01*
X60730642Y133572579D01*
X61622989Y133941290D01*
X62306311Y134623420D01*
X62676578Y135515122D01*
X62677421Y136480642D01*
X62677000Y136481661D01*
X62677000Y142000000D01*
X62492256Y142928773D01*
X61966148Y143716148D01*
X59195161Y146487135D01*
X59195161Y148000000D01*
X59130522Y148343526D01*
X58982860Y148573000D01*
X59744704Y148573000D01*
X61304839Y147012865D01*
X61304839Y145000000D01*
X61369478Y144656474D01*
X61572501Y144340967D01*
X61882279Y144129304D01*
X62250000Y144054839D01*
X65250000Y144054839D01*
X65593526Y144119478D01*
X65909033Y144322501D01*
X66120696Y144632279D01*
X66195161Y145000000D01*
X66195161Y148000000D01*
X66130522Y148343526D01*
X66098891Y148392682D01*
X65992256Y148928773D01*
X65466148Y149716148D01*
X62466148Y152716148D01*
X61678773Y153242256D01*
X60750000Y153427000D01*
X44750000Y153427000D01*
X43821227Y153242256D01*
X43033852Y152716148D01*
X40033852Y149716148D01*
X39507744Y148928773D01*
X39323000Y148000000D01*
X39323000Y146603121D01*
X39294662Y146671704D01*
X39293256Y146678773D01*
X39289287Y146684713D01*
X39108522Y147122197D01*
X38771150Y147460158D01*
X38767148Y147466148D01*
X38761210Y147470115D01*
X38426786Y147805124D01*
X37985766Y147988252D01*
X37979773Y147992256D01*
X37972766Y147993650D01*
X37535598Y148175178D01*
X37058065Y148175595D01*
X37051000Y148177000D01*
X37043997Y148175607D01*
X36570635Y148176020D01*
X36129296Y147993662D01*
X36122227Y147992256D01*
X36116287Y147988287D01*
X35678803Y147807522D01*
X35340842Y147470150D01*
X35334852Y147466148D01*
X35330885Y147460210D01*
X34995876Y147125786D01*
X34812748Y146684766D01*
X34808744Y146678773D01*
X34807350Y146671766D01*
X34625822Y146234598D01*
X34625405Y145757065D01*
X34624000Y145750000D01*
X34624000Y141949000D01*
X34808744Y141020227D01*
X35334852Y140232852D01*
X39192704Y136375000D01*
X38994704Y136177000D01*
X13005296Y136177000D01*
X8177000Y141005296D01*
X8177000Y145498455D01*
X8177421Y145980642D01*
X7808710Y146872989D01*
X7126580Y147556311D01*
X6484322Y147823000D01*
X9658918Y147823000D01*
X12323000Y145158917D01*
X12323000Y141750000D01*
X12383776Y141444460D01*
X12431624Y141203911D01*
X12740959Y140740959D01*
X15490958Y137990959D01*
X15953910Y137681624D01*
X16044512Y137663602D01*
X16500000Y137573000D01*
X25250000Y137573000D01*
X25796089Y137681624D01*
X26259041Y137990959D01*
X31341437Y143073355D01*
X32230642Y143072579D01*
X33122989Y143441290D01*
X33806311Y144123420D01*
X34176578Y145015122D01*
X34177421Y145980642D01*
X33808710Y146872989D01*
X33126580Y147556311D01*
X32234878Y147926578D01*
X31269358Y147927421D01*
X30377011Y147558710D01*
X29693689Y146876580D01*
X29323422Y145984878D01*
X29322641Y145090723D01*
X24658918Y140427000D01*
X17091083Y140427000D01*
X15177000Y142341082D01*
X15177000Y145750000D01*
X15068376Y146296089D01*
X15068376Y146296090D01*
X14759041Y146759042D01*
X13921557Y147596526D01*
X15823000Y147596526D01*
X15823000Y143403474D01*
X16045805Y142283360D01*
X16680298Y141333772D01*
X17629886Y140699279D01*
X18750000Y140476474D01*
X19870114Y140699279D01*
X20819702Y141333772D01*
X21454195Y142283360D01*
X21677000Y143403474D01*
X21677000Y147596526D01*
X21454195Y148716640D01*
X20819702Y149666228D01*
X19870114Y150300721D01*
X18750000Y150523526D01*
X17629886Y150300721D01*
X16680298Y149666228D01*
X16045805Y148716640D01*
X15823000Y147596526D01*
X13921557Y147596526D01*
X11259041Y150259041D01*
X10796089Y150568376D01*
X10250000Y150677000D01*
X3750000Y150677000D01*
X3294512Y150586398D01*
X3203910Y150568376D01*
X2740958Y150259041D01*
X1240959Y148759041D01*
X1002000Y148401414D01*
X1002000Y154248000D01*
X96498000Y154248000D01*
X96498000Y80196481D01*
M02*
