M48
;DRILL file {KiCad 4.0.7-e2-6376~58~ubuntu14.04.1} date Wed Dec 27 15:24:34 2017
;FORMAT={-:-/ absolute / metric / decimal}
FMAT,2
METRIC,TZ
T1C0.800
T2C0.800
T3C0.900
T4C1.000
T5C1.100
T6C1.200
T7C1.300
T8C1.500
T9C1.520
T10C1.800
T11C1.847
T12C2.500
T13C4.000
T14C1.000
T15C2.520
%
G90
G05
M71
T1
X3.25Y40.5
X4.25Y86.62
X4.25Y79.
X4.25Y76.
X4.25Y68.38
X5.75Y40.5
X8.25Y86.5
X8.25Y78.88
X8.25Y76.12
X8.25Y68.5
X9.33Y62.25
X10.25Y68.5
X10.75Y31.
X10.75Y29.
X11.75Y34.
X14.25Y81.25
X14.25Y77.75
X15.75Y54.5
X15.75Y51.96
X15.75Y49.42
X16.25Y44.75
X16.25Y39.75
X16.25Y32.
X19.75Y34.5
X20.5Y47.5
X23.37Y54.5
X23.37Y51.96
X23.37Y49.42
X23.75Y45.75
X23.75Y40.75
X23.75Y32.
X25.25Y77.
X29.5Y55.75
X31.5Y58.25
X31.75Y62.5
X32.25Y77.
X32.5Y81.
X34.25Y75.5
X34.25Y73.5
X34.25Y70.96
X34.25Y68.42
X34.25Y65.88
X34.25Y63.34
X34.25Y60.8
X34.25Y58.26
X34.25Y55.72
X34.25Y53.18
X34.25Y50.64
X34.25Y48.1
X34.25Y45.56
X34.25Y43.02
X34.25Y40.48
X36.5Y55.75
X37.Y48.
X37.Y45.5
X37.25Y112.5
X38.5Y91.75
X38.5Y89.75
X38.5Y87.75
X38.5Y85.75
X38.5Y83.75
X38.5Y81.75
X39.75Y58.25
X41.25Y76.5
X41.87Y73.5
X41.87Y70.96
X41.87Y68.42
X41.87Y65.88
X41.87Y63.34
X41.87Y60.8
X41.87Y58.26
X41.87Y55.72
X41.87Y53.18
X41.87Y50.64
X41.87Y48.1
X41.87Y45.56
X41.87Y43.02
X41.87Y40.48
X44.25Y53.25
X46.75Y84.25
X46.75Y76.75
X49.Y76.
X49.25Y43.
X54.822Y78.478
X55.Y92.25
X56.Y17.
X58.25Y19.
X58.25Y17.
X58.25Y15.
X58.25Y13.
X58.25Y11.
X65.Y56.75
X84.5Y78.5
X84.5Y53.5
X84.81Y90.94
X85.Y30.
X85.Y10.5
X85.63Y145.58
X85.63Y143.04
X85.63Y140.5
X89.75Y114.
X89.75Y75.25
X89.75Y70.75
X89.75Y67.
X89.75Y46.75
X89.75Y43.5
X90.25Y92.
X91.9Y36.9
X91.9Y26.05
X91.95Y84.8
X92.3Y60.35
X93.25Y145.58
X93.25Y143.04
X93.25Y140.5
X94.75Y114.
X94.75Y67.
X94.75Y43.5
X95.25Y92.
T2
X2.25Y35.06
X2.25Y27.44
X11.75Y43.81
X11.75Y36.19
X15.94Y36.5
X16.44Y28.5
X23.56Y36.5
X24.06Y28.5
X37.25Y108.81
X37.25Y101.19
X43.5Y92.06
X43.5Y84.44
X48.25Y47.81
X48.25Y40.19
X57.94Y130.
X65.56Y130.
X85.94Y137.
X86.44Y130.
X87.5Y98.56
X87.5Y90.94
X87.94Y78.5
X87.94Y53.5
X87.94Y30.
X93.56Y137.
X94.06Y130.
X95.56Y78.5
X95.56Y53.5
X95.56Y30.
T3
X4.96Y22.75
X7.5Y22.75
X92.25Y124.54
X92.25Y122.
T4
X3.75Y49.5
X4.25Y58.5
X6.79Y58.5
X8.75Y49.5
X9.33Y58.5
T5
X89.75Y110.5
X89.75Y104.
X89.75Y88.5
X89.75Y82.
X89.75Y63.5
X89.75Y57.
X89.75Y40.
X89.75Y33.5
X94.25Y110.5
X94.25Y104.
X94.25Y88.5
X94.25Y82.
X94.25Y63.5
X94.25Y57.
X94.25Y40.
X94.25Y33.5
T6
X52.358Y78.478
X52.358Y75.938
X52.358Y73.398
X52.358Y70.858
X52.358Y68.318
X52.358Y65.778
X52.358Y63.238
X52.358Y60.698
X52.358Y58.158
X52.358Y55.618
X52.358Y53.078
X52.358Y50.538
X52.358Y47.998
X52.358Y45.458
X52.358Y42.918
X52.358Y40.378
T7
X87.75Y20.5
X87.75Y15.5
X87.75Y10.5
T8
X44.25Y118.
X44.25Y96.
X77.25Y146.
X77.25Y124.
T9
X51.67Y146.5
X56.75Y146.5
X63.75Y146.5
X68.83Y146.5
T10
X5.75Y145.5
X5.75Y92.
X31.75Y145.5
X31.75Y92.
X51.75Y136.5
X51.75Y132.5
X51.75Y128.5
X60.25Y136.
X70.75Y117.75
T11
X37.051Y145.75
X41.75Y145.75
X46.449Y145.75
T12
X52.358Y109.877
X52.358Y34.879
X83.359Y109.877
X83.359Y34.879
T14
X48.75Y159.75
X48.75Y2.75
T15
X3.5Y16.25
X29.5Y152.
X78.Y28.5
X86.Y115.75
T13
X18.75Y143.5G85X18.75Y147.5
G05
X18.75Y90.G85X18.75Y94.
G05
T0
M30
